<?xml version="1.0" encoding="iso-8859-1"?>
<!-- Generator: Adobe Illustrator 23.1.0, SVG Export Plug-In . SVG Version: 6.00 Build 0)  -->
<svg version="1.1" id="&#x56FE;&#x5C42;_1" xmlns="http://www.w3.org/2000/svg" xmlns:xlink="http://www.w3.org/1999/xlink" x="0px"
	 y="0px" viewBox="0 0 495 232" style="enable-background:new 0 0 495 232;" xml:space="preserve">
<title>login_left</title>
<desc>Created with Sketch.</desc>
<g id="&#x9875;&#x9762;1">
	<g id="login_left" transform="translate(-8.000000, -16.000000)">
		<path id="PEOPLEIINNOVATIONIINSIGHT" style="fill:#001F58;" d="M73.724,246.956v-5.2h3.8c2.9,0,5.5-1.5,5.5-4.5l0,0
			c0-2.7-2.1-4.3-5.2-4.3h-5.1v14H73.724z M77.624,240.856h-3.8v-6.9h4c2.5,0,4.2,1.2,4.2,3.4l0,0
			C81.924,239.456,80.224,240.856,77.624,240.856z M96.124,246.956v-1h-9v-5.5h8v-1h-8v-5.5h8.9v-1h-10v14H96.124z M105.824,247.256
			c4.2,0,7.1-3.4,7.1-7.2l0,0c0-3.8-2.8-7.2-7-7.2c-4.2,0-7.1,3.4-7.1,7.2l0,0C98.824,243.856,101.624,247.256,105.824,247.256z
			 M105.924,246.256c-3.5,0-6-2.8-6-6.3l0,0c0-3.5,2.5-6.3,5.9-6.3c3.5,0,6,2.8,6,6.3l0,0
			C111.824,243.456,109.324,246.256,105.924,246.256z M117.524,246.956v-5.2h3.8c2.9,0,5.5-1.5,5.5-4.5l0,0c0-2.7-2.1-4.3-5.2-4.3
			h-5.2v14H117.524z M121.324,240.856h-3.8v-6.9h4c2.5,0,4.2,1.2,4.2,3.4l0,0C125.724,239.456,123.924,240.856,121.324,240.856z
			 M139.124,246.956v-1h-8.2v-13h-1v14H139.124z M152.224,246.956v-1h-9v-5.5h8v-1h-8v-5.5h8.9v-1h-10v14H152.224z M186.824,246.956
			v-14h-1v14H186.824z M222.224,246.956v-14h-1v14H222.224z M227.524,246.956v-12.4l9.9,12.4h0.8v-14h-1v12.2l-9.7-12.2h-1v14
			H227.524z M243.324,246.956v-12.4l9.9,12.4h0.8v-14h-1v12.2l-9.7-12.2h-1v14H243.324z M264.524,247.256c4.2,0,7.1-3.4,7.1-7.2l0,0
			c0-3.8-2.8-7.2-7-7.2c-4.2,0-7.1,3.4-7.1,7.2l0,0C257.524,243.856,260.324,247.256,264.524,247.256z M264.624,246.256
			c-3.5,0-6-2.8-6-6.3l0,0c0-3.5,2.5-6.3,5.9-6.3c3.5,0,6,2.8,6,6.3l0,0C270.524,243.456,268.024,246.256,264.624,246.256z
			 M281.024,247.056l6.2-14.1h-1.1l-5.5,12.9l-5.5-12.9h-1.2l6.2,14.1H281.024z M290.024,246.956l1.8-3.9h8.3l1.8,3.9h1.1l-6.5-14.1
			h-1l-6.5,14.1H290.024z M299.624,242.156h-7.4l3.7-8.1L299.624,242.156z M310.924,246.956v-13h4.9v-1h-10.8v1h4.9v13H310.924z
			 M320.124,246.956v-14h-1v14H320.124z M330.824,247.256c4.2,0,7.1-3.4,7.1-7.2l0,0c0-3.8-2.8-7.2-7-7.2c-4.2,0-7.1,3.4-7.1,7.2
			l0,0C323.824,243.856,326.524,247.256,330.824,247.256z M330.824,246.256c-3.5,0-6-2.8-6-6.3l0,0c0-3.5,2.5-6.3,5.9-6.3
			c3.5,0,6,2.8,6,6.3l0,0C336.824,243.456,334.324,246.256,330.824,246.256z M342.424,246.956v-12.4l9.9,12.4h0.8v-14h-1v12.2
			l-9.7-12.2h-1v14H342.424z M388.424,246.956v-14h-1v14H388.424z M423.824,246.956v-14h-1v14H423.824z M429.124,246.956v-12.4
			l9.9,12.4h0.8v-14h-1v12.2l-9.7-12.2h-1v14H429.124z M448.724,247.156c2.7,0,4.6-1.6,4.6-3.8l0,0c0-2-1.4-3.2-4.6-3.9
			c-3.3-0.7-4.1-1.6-4.1-3.1l0,0c0-1.5,1.4-2.6,3.4-2.6c1.5,0,2.9,0.4,4.2,1.6l0.7-0.8c-1.4-1.1-2.8-1.7-4.8-1.7
			c-2.6,0-4.5,1.6-4.5,3.7l0,0c0,2.1,1.4,3.3,4.7,3.9c3.2,0.6,4,1.5,4,3l0,0c0,1.6-1.4,2.8-3.5,2.8s-3.5-0.7-5-2.1l-0.7,0.8
			C444.724,246.456,446.424,247.156,448.724,247.156z M457.924,246.956v-14h-1v14H457.924z M468.624,247.256c2.3,0,4.2-1,5.5-2.1
			v-5.4h-5.7v1h4.7v4c-1,0.9-2.7,1.6-4.5,1.6c-3.7,0-6-2.7-6-6.3l0,0c0-3.4,2.4-6.3,5.8-6.3c2.1,0,3.4,0.7,4.5,1.7l0.7-0.8
			c-1.4-1.2-2.8-1.8-5.1-1.8c-4.2,0-6.9,3.5-6.9,7.2l0,0C461.624,243.956,464.224,247.256,468.624,247.256z M478.924,246.956v-6.5h9
			v6.6h1v-14h-1v6.5h-9v-6.5h-1v14h1V246.956z M498.024,246.956v-13h4.9v-1h-10.8v1h4.9v13H498.024z"/>
		<g style="enable-background:new    ;">
			<path style="fill:#001F58;" d="M64.806,19.979v3.672H12.241v53.141H67.11v3.744H8.425V19.979H64.806z M20.738,46.262
				l-2.808-2.593c4.968-4.32,8.712-9.864,11.161-16.633l3.601,0.936c-0.864,2.305-1.8,4.465-2.808,6.48h29.882v3.601H43.492v4.681
				c-0.072,2.52-0.288,4.824-0.576,6.912h21.026v3.673H42.124c-1.008,3.528-2.448,6.624-4.392,9.217
				c-3.672,4.608-9.649,8.137-17.93,10.729l-2.232-3.312c8.137-2.448,13.897-5.76,17.354-10.08c1.368-2.017,2.448-4.177,3.168-6.553
				H17.786v-3.673h21.242c0.432-2.16,0.648-4.464,0.72-6.912v-4.681H27.866C25.85,41.293,23.474,44.029,20.738,46.262z
				 M64.085,69.88l-2.088,3.24c-6.553-5.4-13.25-9.649-20.09-12.745l2.016-2.952C51.269,60.879,58.037,64.983,64.085,69.88z"/>
			<path style="fill:#001F58;" d="M87.77,46.333V23.651h24.77c-0.936-2.448-1.944-4.608-2.952-6.553l3.96-0.647
				c1.008,2.16,1.873,4.536,2.736,7.2h22.466v3.816H91.658v18.865c-0.288,15.122-3.528,27.291-9.721,36.363l-2.953-2.664
				c4.681-6.769,7.489-15.697,8.425-26.858c-3.528,3.169-7.417,6.049-11.737,8.641l-1.008-3.744
				c4.681-2.664,9.001-5.761,13.033-9.217C87.697,47.989,87.77,47.197,87.77,46.333z M85.393,43.165l-3.24,1.368
				c-2.016-5.185-4.176-9.721-6.48-13.609l3.24-1.296C81.433,33.876,83.593,38.413,85.393,43.165z M135.438,36.036v3.745
				c-4.537,4.32-9.721,8.353-15.625,12.169v24.554c0,4.32-2.232,6.553-6.552,6.553h-8.641l-0.936-3.528
				c2.448,0.072,5.185,0.144,8.065,0.144c2.736,0,4.176-1.439,4.176-4.32V49.934c4.968-2.808,9.721-6.192,14.257-10.152H98.066
				v-3.745H135.438z"/>
			<path style="fill:#001F58;" d="M161.498,39.781v32.69c2.448-2.16,5.041-4.824,7.777-7.849l1.008,4.104
				c-3.888,4.248-7.993,8.064-12.385,11.449l-1.512-3.528c0.864-0.792,1.368-1.585,1.368-2.448V43.598h-10.585v-3.816H161.498z
				 M166.97,29.556l-2.736,2.736c-2.953-3.6-6.913-7.488-11.953-11.521l2.808-2.664C159.841,21.923,163.802,25.739,166.97,29.556z
				 M198.869,76.144c-2.088-4.176-3.6-10.08-4.464-17.569c-0.864-6.408-1.368-14.401-1.656-23.978h-23.114v-3.889h23.042
				c-0.144-4.32-0.144-8.856-0.144-13.609h3.888c0,4.896,0,9.433,0.144,13.609h14.689v3.889h-14.617
				c0.36,13.393,1.224,23.546,2.52,30.387c1.656,8.064,3.672,12.24,5.977,12.457c1.728-0.288,3.456-4.825,5.112-13.754l3.024,2.521
				c-2.232,10.297-4.968,15.481-8.137,15.481C202.829,81.688,200.741,79.816,198.869,76.144z M171.291,50.726v-3.672h18.217v3.672
				h-7.201v20.81c3.384-0.792,6.697-1.655,10.009-2.592v3.744c-6.337,1.872-13.105,3.385-20.378,4.608l-0.936-3.744l7.489-1.296
				v-21.53H171.291z M210.03,26.388l-2.808,1.944c-1.8-2.881-4.249-6.049-7.345-9.505l2.736-1.8
				C205.781,20.627,208.302,23.724,210.03,26.388z"/>
			<path style="fill:#001F58;" d="M240.986,38.629c3.024-2.952,5.112-6.337,6.264-10.225h-25.922v-3.745h16.417
				c-0.864-2.592-1.944-4.968-3.097-7.128l4.177-0.648c1.008,2.305,1.944,4.896,2.88,7.776h16.489v3.745h-7.128
				c-1.296,4.608-3.6,8.641-6.769,11.952c4.896,2.521,9.505,5.257,13.825,8.209l-2.16,3.312c-4.824-3.385-9.649-6.337-14.473-8.929
				c-5.112,4.032-11.953,6.841-20.522,8.497l-1.656-3.457c7.776-1.368,14.041-3.672,18.649-6.912
				c-4.608-2.376-9.289-4.465-13.897-6.192l1.944-2.952C231.193,33.948,236.234,36.181,240.986,38.629z M232.201,52.958v3.312
				c-0.072,7.128-0.936,12.889-2.592,17.209c-1.656,4.032-4.321,7.129-8.065,9.433l-2.016-3.168c3.24-2.088,5.544-4.968,6.913-8.713
				c1.224-3.816,1.872-8.713,1.944-14.761v-3.312H232.201z M251.139,52.958v29.954h-3.889V52.958H251.139z M267.484,23.724v45.147
				h-3.816V23.724H267.484z M264.893,82.769l-0.864-3.744c3.312,0.144,6.48,0.288,9.505,0.288c2.52,0,3.816-1.296,3.816-3.816
				V17.603h3.889v58.901c0,4.177-2.16,6.265-6.338,6.265H264.893z"/>
			<path style="fill:#001F58;" d="M302.834,43.237V17.531h3.672v25.706h9.072v3.672h-9.072v2.16
				c3.672,4.032,7.344,8.641,11.089,13.754l-2.16,3.312c-3.456-5.76-6.481-10.297-8.929-13.681v30.53h-3.672V53.39
				c-2.593,6.985-6.121,13.25-10.658,18.866l-1.656-4.177c5.762-6.192,9.793-13.249,12.098-21.17h-10.513v-3.672H302.834z
				 M298.585,38.484l-2.808,0.792c-0.865-5.184-2.017-10.152-3.385-14.905l2.952-0.936
				C296.568,27.828,297.648,32.868,298.585,38.484z M316.586,22.355c-0.504,6.12-1.656,11.593-3.455,16.346l-2.809-0.864
				c1.656-4.608,2.664-9.865,3.096-15.842L316.586,22.355z M339.557,17.243v5.185h15.409v3.312h-15.409v5.688h13.32v3.24h-13.32
				v5.833h17.354v3.384h-38.74v-3.384h17.57v-5.833h-13.754v-3.24h13.754v-5.688h-15.842v-3.312h15.842v-5.185H339.557z
				 M326.307,82.841h-3.744V49.357h29.811v28.011c0,3.456-1.728,5.185-5.184,5.185h-5.257l-0.937-3.528l4.969,0.144
				c1.729,0,2.664-0.863,2.664-2.592v-5.4h-22.322V82.841z M348.629,52.67h-22.322v6.265h22.322V52.67z M326.307,68.007h22.322
				v-5.976h-22.322V68.007z"/>
			<path style="fill:#001F58;" d="M378.722,18.683c-3.601,10.081-7.129,17.93-10.729,23.547c3.312-0.433,6.625-1.08,10.082-1.873
				c1.224-2.735,2.52-5.544,3.888-8.496l3.456,1.296c-6.192,13.105-11.232,22.178-15.121,27.29
				c5.185-1.008,10.297-2.304,15.338-4.032v3.528c-6.77,2.232-13.394,3.816-19.874,4.681l-1.009-3.456
				c0.721-0.288,1.297-0.648,1.729-1.08c2.736-3.24,6.049-8.641,9.865-16.202c-4.104,0.864-8.064,1.585-11.953,2.16l-0.937-3.456
				c0.576-0.288,1.081-0.72,1.513-1.368c3.889-6.84,7.272-14.833,10.152-23.978L378.722,18.683z M385.706,73.048
				c-6.337,2.736-13.608,4.969-21.674,6.696L363.456,76c8.497-1.656,15.913-3.889,22.25-6.696V73.048z M392.763,77.656v4.969h-3.673
				V23.436h36.939v59.189h-3.672v-4.969H392.763z M392.763,27.036V48.35h13.033V27.036H392.763z M392.763,52.021v22.034h13.033
				V52.021H392.763z M422.357,48.35V27.036h-12.961V48.35H422.357z M422.357,74.056V52.021h-12.961v22.034H422.357z"/>
			<path style="fill:#001F58;" d="M461.379,18.611c-2.593,6.192-5.904,11.953-9.865,17.281V83.2h-3.889V40.717
				c-3.456,3.889-7.272,7.633-11.449,11.089l-1.224-4.032c10.513-9.072,18.073-19.369,22.754-30.891L461.379,18.611z M476.14,81.832
				c-4.464,0-6.696-2.304-6.696-6.769V51.734c-3.385,1.943-6.769,3.744-10.225,5.4l-1.873-3.745
				c4.249-1.872,8.281-3.96,12.098-6.192V17.675h3.889v27.074c7.92-5.185,14.904-11.232,20.81-18.001l2.664,3.024
				c-6.624,7.416-14.474,13.969-23.474,19.585v25.131c0,2.376,1.224,3.6,3.744,3.6h12.457c2.016,0,3.528-0.647,4.465-1.8
				c0.936-1.296,1.512-5.688,1.799-13.249l3.602,1.152c-0.433,8.28-1.225,13.32-2.449,15.121c-1.296,1.656-3.527,2.52-6.768,2.52
				H476.14z"/>
		</g>
		<g style="enable-background:new    ;">
			<path style="fill:#001F58;" d="M79.345,134.452l-3.312-2.088c4.464-4.608,7.777-9.721,9.865-15.409l3.816,0.792
				c-0.72,1.729-1.44,3.456-2.232,5.112h20.233v3.528H94.682c1.872,2.521,3.312,4.824,4.392,6.984l-3.528,1.368
				c-1.44-2.88-3.168-5.616-5.041-8.353h-4.968C83.737,129.268,81.649,132.004,79.345,134.452z M138.174,149.79h-3.816v-9.001
				H81.649v9.001h-3.816v-12.386h29.09c-0.864-1.943-1.728-3.672-2.592-5.256l3.816-0.721c0.936,1.729,1.8,3.745,2.592,5.977h27.435
				V149.79z M128.309,159.295H91.658v5.832h39.963v17.857h-3.888v-3.24H91.658v3.168H87.77v-37.083h40.54V159.295z M124.493,156.055
				v-6.913H91.658v6.913H124.493z M127.733,176.216v-7.849H91.658v7.849H127.733z M112.036,133.517l-3.312-2.16
				c3.528-4.249,6.121-9.001,7.777-14.329l3.672,0.792c-0.576,1.728-1.224,3.456-1.873,5.04h21.53v3.528h-13.609
				c1.728,2.305,3.096,4.393,4.104,6.408l-3.528,1.225c-1.368-2.593-2.952-5.185-4.825-7.633h-5.328
				C115.276,128.979,113.764,131.356,112.036,133.517z"/>
			<path style="fill:#001F58;" d="M157.105,144.461v-18.289H147.6v-3.744h22.826v3.744h-9.433v18.289h8.568v3.816h-8.568v17.93
				c3.024-1.08,5.904-2.232,8.641-3.384v3.816c-6.625,2.808-13.825,5.112-21.53,6.984l-0.936-3.673
				c3.456-0.72,6.769-1.512,9.937-2.52v-19.154h-8.497v-3.816H157.105z M208.733,120.483v32.402H193.54v9.649h16.634v3.672H193.54
				v10.729h19.37v3.815h-43.06v-3.815h19.802v-10.729h-16.633v-3.672h16.633v-9.649h-15.193v-32.402H208.733z M189.652,135.101
				v-11.089h-11.449v11.089H189.652z M189.652,138.484h-11.449v10.873h11.449V138.484z M193.54,135.101h11.377v-11.089H193.54
				V135.101z M204.917,138.484H193.54v10.873h11.377V138.484z"/>
			<path style="fill:#001F58;" d="M223.561,183.129l-3.024-2.664c2.88-6.77,4.392-15.266,4.464-25.635v-34.059h20.018v56.165
				c0,3.888-1.872,5.904-5.617,5.904h-5.76l-0.936-3.456c2.016,0.071,3.816,0.144,5.544,0.144c2.016,0,3.096-1.296,3.096-3.889
				v-17.642h-12.889C228.097,168.224,226.441,176.576,223.561,183.129z M241.346,124.443h-12.817v13.249h12.817V124.443z
				 M228.529,154.326h12.817v-13.105h-12.817V154.326z M255.531,183.057h-3.672v-62.285h28.371c0,8.496-0.433,14.185-1.296,16.993
				c-0.792,2.88-3.457,4.32-8.064,4.32h-5.545l-1.08-3.384h4.824c1.873,0,3.24-0.145,4.177-0.433
				c0.864-0.288,1.584-1.008,2.088-2.16c0.576-1.872,0.937-5.761,1.009-11.737h-20.811v22.971h24.698v3.312
				c-1.513,7.776-4.032,14.329-7.633,19.657c3.456,3.456,7.633,6.553,12.386,9.217l-1.873,3.24c-5.04-2.88-9.289-6.049-12.673-9.505
				c-3.24,3.96-7.128,7.129-11.665,9.577l-2.016-3.097c4.32-2.448,8.064-5.473,11.089-9.217c-4.896-5.761-8.209-12.312-9.937-19.657
				h-2.377V183.057z M270.005,167.575c3.097-4.752,5.328-10.369,6.696-16.705h-15.409
				C262.876,157.062,265.828,162.679,270.005,167.575z"/>
			<path style="fill:#001F58;" d="M317.451,117.675c-0.865,2.088-1.945,4.104-3.097,5.977h31.898v3.168
				c-4.824,5.617-10.729,10.297-17.714,14.113c8.354,3.745,17.786,6.193,28.227,7.345l-1.729,3.673
				c-11.521-1.368-21.745-4.32-30.746-8.857c-8.929,4.104-19.297,7.057-31.25,8.929l-1.801-3.6
				c11.018-1.513,20.666-4.032,28.947-7.561c-4.465-2.665-8.642-5.688-12.529-9.146c-2.809,2.593-6.049,5.041-9.721,7.201
				l-2.377-3.097c8.857-5.04,14.834-11.305,17.93-18.722L317.451,117.675z M324.291,148.854c0,3.168-0.288,6.049-0.792,8.785h25.634
				c-0.144,11.809-1.224,18.938-3.312,21.241c-2.088,2.305-5.76,3.528-10.944,3.528c-2.16,0-4.824-0.071-7.921-0.216l-1.008-3.601
				c3.24,0.145,5.904,0.288,8.064,0.288c4.752-0.071,7.777-1.008,9.001-2.88c1.224-1.944,1.944-6.912,2.232-14.833h-22.61
				c-0.72,2.16-1.512,4.104-2.52,5.904c-3.816,6.48-12.242,11.809-25.347,15.985l-2.593-3.097
				c11.81-3.528,19.73-8.064,23.763-13.537c1.008-1.656,1.8-3.384,2.521-5.256h-22.25v-3.528h23.33
				c0.576-2.736,0.936-5.688,0.936-8.785H324.291z M340.709,127.324h-29.02c-0.504,0.575-1.008,1.151-1.439,1.728
				c4.248,3.889,8.929,7.129,14.113,9.865C330.699,135.677,336.172,131.788,340.709,127.324z"/>
			<path style="fill:#001F58;" d="M425.021,120.915v3.889h-27.362v28.442h30.026v3.816h-30.026v25.922h-3.888v-25.922H364.32v-3.816
				h29.451v-28.442h-26.57v-3.889H425.021z M382.898,146.981l-3.673,1.8c-2.448-6.264-5.112-11.809-7.849-16.705l3.601-1.729
				C377.785,135.389,380.449,140.933,382.898,146.981z M420.918,131.5c-2.305,5.904-5.329,11.593-8.93,17.065l-3.528-1.8
				c3.745-5.688,6.696-11.305,8.856-16.922L420.918,131.5z"/>
			<path style="fill:#001F58;" d="M438.192,141.869c6.985-2.88,15.05-11.089,24.122-24.626l3.961,1.368
				c-6.984,10.152-13.897,17.857-20.811,23.113c15.266-0.647,29.307-1.584,42.268-2.88c-3.168-4.32-6.336-8.28-9.504-11.881
				l3.6-1.729c6.337,7.345,12.313,15.266,17.785,23.906l-3.744,1.872c-1.871-3.096-3.816-5.977-5.688-8.713
				c-15.266,1.44-32.332,2.521-51.27,3.24L438.192,141.869z M491.621,183.129h-3.889v-4.104h-39.459v4.104h-3.889v-29.522h47.236
				V183.129z M487.732,175.208v-17.857h-39.459v17.857H487.732z"/>
		</g>
	</g>
</g>
</svg>
