<?xml version="1.0" encoding="UTF-8"?>
<svg width="226px" height="30px" viewBox="0 0 226 30" version="1.1" xmlns="http://www.w3.org/2000/svg" xmlns:xlink="http://www.w3.org/1999/xlink">
    <!-- Generator: Sketch 64 (93537) - https://sketch.com -->
    <title>Insight管理平台</title>
    <desc>Created with Sketch.</desc>
    <g id="首页" stroke="none" stroke-width="1" fill="none" fill-rule="evenodd">
        <g id="首页/登录暂时页2/1920X1280" transform="translate(-1166.000000, -503.000000)" fill="#001F58" fill-rule="nonzero">
            <g id="浮层" transform="translate(960.000000, 252.000000)">
                <g id="编组-6" transform="translate(160.000000, 120.000000)">
                    <path d="M48.55,156 L48.55,135 L46.18,135 L46.18,156 L48.55,156 Z M56.62,156 L56.62,147.12 C56.62,144.21 58.6,142.26 61.27,142.26 C64,142.26 65.56,144.06 65.56,146.94 L65.56,156 L67.87,156 L67.87,146.37 C67.87,142.68 65.68,140.16 61.93,140.16 C59.26,140.16 57.64,141.51 56.62,143.19 L56.62,140.49 L54.31,140.49 L54.31,156 L56.62,156 Z M77.92,156.3 C81.01,156.3 83.44,154.59 83.44,151.65 L83.44,151.59 C83.44,148.8 80.86,147.87 78.46,147.15 C76.39,146.52 74.47,145.95 74.47,144.48 L74.47,144.42 C74.47,143.13 75.64,142.17 77.47,142.17 C78.97,142.17 80.62,142.74 82.06,143.67 L83.11,141.93 C81.52,140.88 79.42,140.22 77.53,140.22 C74.47,140.22 72.25,141.99 72.25,144.66 L72.25,144.72 C72.25,147.57 74.95,148.41 77.38,149.1 C79.42,149.67 81.25,150.27 81.25,151.83 L81.25,151.89 C81.25,153.39 79.9,154.35 78.04,154.35 C76.21,154.35 74.35,153.63 72.67,152.37 L71.5,154.02 C73.24,155.43 75.7,156.3 77.92,156.3 Z M90.43,137.1 L90.43,134.55 L87.79,134.55 L87.79,137.1 L90.43,137.1 Z M90.25,156 L90.25,140.49 L87.94,140.49 L87.94,156 L90.25,156 Z M102.49,160.86 C104.95,160.86 107.02,160.17 108.4,158.79 C109.66,157.53 110.38,155.7 110.38,153.3 L110.38,140.49 L108.07,140.49 L108.07,143.28 C106.81,141.6 104.92,140.16 102.01,140.16 C98.32,140.16 94.72,142.95 94.72,147.48 L94.72,147.54 C94.72,152.01 98.29,154.8 102.01,154.8 C104.86,154.8 106.75,153.33 108.1,151.53 L108.1,153.36 C108.1,156.99 105.88,158.88 102.46,158.88 C100.24,158.88 98.26,158.19 96.49,156.9 L95.44,158.7 C97.51,160.14 99.91,160.86 102.49,160.86 Z M102.46,152.76 C99.58,152.76 97.09,150.6 97.09,147.48 L97.09,147.42 C97.09,144.24 99.52,142.2 102.46,142.2 C105.4,142.2 108.16,144.27 108.16,147.45 L108.16,147.51 C108.16,150.63 105.4,152.76 102.46,152.76 Z M117.85,156 L117.85,147.12 C117.85,144.21 119.83,142.26 122.5,142.26 C125.23,142.26 126.79,144.06 126.79,146.94 L126.79,156 L129.1,156 L129.1,146.37 C129.1,142.68 126.91,140.16 123.16,140.16 C120.49,140.16 118.87,141.51 117.85,143.19 L117.85,134.1 L115.54,134.1 L115.54,156 L117.85,156 Z M139.21,156.27 C140.32,156.27 141.19,156.03 142,155.61 L142,153.63 C141.19,154.02 140.53,154.17 139.75,154.17 C138.19,154.17 137.14,153.48 137.14,151.59 L137.14,142.53 L142.06,142.53 L142.06,140.49 L137.14,140.49 L137.14,135.81 L134.83,135.81 L134.83,140.49 L132.67,140.49 L132.67,142.53 L134.83,142.53 L134.83,151.89 C134.83,155.04 136.72,156.27 139.21,156.27 Z M163.09,138.87 L165.07,138.12 C164.65,137.31 164.08,136.44 163.42,135.54 L168.46,135.54 L168.46,133.65 L160.42,133.65 C160.66,133.05 160.93,132.45 161.17,131.79 L159.1,131.34 C158.26,133.62 156.94,135.72 155.14,137.58 L157.03,138.78 C157.93,137.79 158.71,136.71 159.43,135.54 L161.14,135.54 C161.89,136.62 162.55,137.73 163.09,138.87 Z M157.93,145.14 L157.93,141.57 L179.17,141.57 L179.17,145.14 L181.27,145.14 L181.27,139.71 L169.87,139.71 C169.57,138.87 169.24,138.12 168.91,137.43 L170.53,138.42 C171.19,137.52 171.82,136.56 172.36,135.54 L174.25,135.54 C174.97,136.5 175.6,137.52 176.14,138.6 L178.06,137.88 C177.7,137.16 177.19,136.38 176.56,135.54 L181.9,135.54 L181.9,133.65 L173.23,133.65 C173.47,133.05 173.68,132.45 173.89,131.82 L171.82,131.37 C171.16,133.53 170.14,135.48 168.7,137.28 L168.88,137.4 L166.78,137.76 C167.11,138.36 167.41,138.99 167.71,139.71 L155.83,139.71 L155.83,145.14 L157.93,145.14 Z M178.51,159 L178.51,151.29 L162.16,151.29 L162.16,149.22 L177.13,149.22 L177.13,143.34 L160,143.34 L160,158.97 L162.16,158.97 L162.16,157.74 L176.38,157.74 L176.38,159 L178.51,159 Z M175.03,147.48 L162.16,147.48 L162.16,145.08 L175.03,145.08 L175.03,147.48 Z M176.38,155.82 L162.16,155.82 L162.16,153.03 L176.38,153.03 L176.38,155.82 Z M212.32,158.1 L212.32,156.03 L204.46,156.03 L204.46,152.13 L211.21,152.13 L211.21,150.09 L204.46,150.09 L204.46,146.55 L210.7,146.55 L210.7,132.69 L196.03,132.69 L196.03,146.55 L202.3,146.55 L202.3,150.09 L195.52,150.09 L195.52,152.13 L202.3,152.13 L202.3,156.03 L194.26,156.03 L194.26,158.1 L212.32,158.1 Z M185.32,155.19 C188.5,154.41 191.47,153.45 194.23,152.31 L194.23,150.21 C193.15,150.69 192.07,151.11 190.93,151.5 L190.93,144.69 L194.23,144.69 L194.23,142.62 L190.93,142.62 L190.93,135.51 L194.59,135.51 L194.59,133.47 L185.02,133.47 L185.02,135.51 L188.71,135.51 L188.71,142.62 L185.44,142.62 L185.44,144.69 L188.71,144.69 L188.71,152.22 C187.42,152.58 186.1,152.88 184.78,153.12 L185.32,155.19 Z M202.3,138.69 L198.1,138.69 L198.1,134.61 L202.3,134.61 L202.3,138.69 Z M208.63,138.69 L204.46,138.69 L204.46,134.61 L208.63,134.61 L208.63,138.69 Z M208.63,144.63 L204.46,144.63 L204.46,140.58 L208.63,140.58 L208.63,144.63 Z M202.3,144.63 L198.1,144.63 L198.1,140.58 L202.3,140.58 L202.3,144.63 Z M229.54,158.97 L229.54,148.35 L241.84,148.35 L241.84,146.28 L229.54,146.28 L229.54,134.94 L240.7,134.94 L240.7,132.84 L216.46,132.84 L216.46,134.94 L227.32,134.94 L227.32,146.28 L215.26,146.28 L215.26,148.35 L227.32,148.35 L227.32,158.97 L229.54,158.97 Z M235.54,144.6 C237.01,142.32 238.21,140.01 239.11,137.64 L237.13,136.71 C236.26,138.99 235.09,141.27 233.62,143.61 L235.54,144.6 Z M221.35,144.72 L223.36,143.73 C222.34,141.24 221.26,138.96 220.12,136.86 L218.11,137.85 C219.25,139.86 220.33,142.14 221.35,144.72 Z M269.8,145.71 L271.9,144.69 C269.68,141.06 267.28,137.73 264.7,134.73 L262.75,135.66 C263.95,137.04 265.12,138.57 266.26,140.19 C261.1,140.67 255.64,141.06 249.88,141.3 C252.58,139.08 255.31,136.02 258.01,132.18 L255.79,131.43 C251.89,137.16 248.62,140.49 245.98,141.39 L246.4,143.43 C254.2,143.13 261.25,142.71 267.58,142.14 C268.3,143.28 269.05,144.45 269.8,145.71 Z M250.72,159.03 L250.72,157.53 L266.38,157.53 L266.38,159.03 L268.57,159.03 L268.57,146.52 L248.53,146.52 L248.53,159.03 L250.72,159.03 Z M266.38,155.46 L250.72,155.46 L250.72,148.59 L266.38,148.59 L266.38,155.46 Z" id="Insight管理平台"></path>
                </g>
            </g>
        </g>
    </g>
</svg>