<?xml version="1.0" encoding="utf-8"?>
<!-- Generator: Adobe Illustrator 24.0.0, SVG Export Plug-In . SVG Version: 6.00 Build 0)  -->
<svg version="1.1" id="图层_1" xmlns="http://www.w3.org/2000/svg" xmlns:xlink="http://www.w3.org/1999/xlink" x="0px" y="0px"
	 viewBox="0 0 85 93" style="enable-background:new 0 0 85 93;" xml:space="preserve">
<style type="text/css">
	.st0{fill:#001F58;}
</style>
<g id="首页">
	<g id="首页_x2F_登录暂时页2_x2F_1920X1280" transform="translate(-1237.000000, -369.000000)">
		<g id="浮层" transform="translate(960.000000, 252.000000)">
			<g id="编组-6" transform="translate(160.000000, 120.000000)">
				<g id="LOGO" transform="translate(119.000000, 0.000000)">
					<g id="_x23_LOGO_x5F_NAVY">
						<path id="Stroke-1" class="st0" d="M34.3-0.5L4.7,16.3c-3.9,2.2-6.4,6.4-6.4,10.9v33.3c0,4.5,2.4,8.7,6.4,10.9l29.6,16.8
							c3.8,2.2,8.6,2.2,12.4,0l29.6-16.8c3.9-2.2,6.4-6.4,6.4-10.9V27.3c0-4.5-2.4-8.7-6.4-10.9L46.7-0.5
							C42.9-2.6,38.2-2.6,34.3-0.5z M44.7,3.2L74.3,20c2.6,1.5,4.2,4.3,4.2,7.3v33.3c0,3-1.6,5.8-4.2,7.3L44.7,84.6
							c-2.6,1.5-5.7,1.5-8.3,0L6.8,67.8c-2.6-1.5-4.2-4.3-4.2-7.3V27.3c0-3,1.6-5.8,4.2-7.3L36.4,3.2C39,1.7,42.1,1.7,44.7,3.2z"/>
						<path id="Stroke-5" class="st0" d="M11.2,12.6c5-3,12.2-2.8,17.5,0.4l1.1,0.7c1.8,1.1,5.2,3,9.7,5.6l9.4,5.3l6.2,3.5l14.6,8.1
							l-2,3.7L58,34.5c-2.2-1.2-4.3-2.4-6.4-3.6l-10.9-6.1c-7.2-4.1-12.1-6.9-13.9-8.1c-3.9-2.5-9.4-2.7-13.1-0.7l-0.3,0.2
							L11.2,12.6z"/>
						<path id="Stroke-7" class="st0" d="M21.3,6.9C26.5,4,34.2,4,39.4,7.1l1.3,0.8c2.2,1.3,6.3,3.7,11.8,6.8l6.4,3.6l7.6,4.3
							l12.6,7l-2,3.7l-9.4-5.3c-2.6-1.5-5.2-2.9-7.7-4.4l-8.6-4.9c-7.1-4-11.9-6.8-13.8-8c-3.7-2.4-9.8-2.5-13.8-0.4l-0.3,0.2
							L21.3,6.9z"/>
						<path id="Stroke-3" class="st0" d="M0.3,20.6c3.2-5,11-5.8,16.6-2.4l0.9,0.6c3.8,2.3,14.6,8.5,28.1,16.2l13.2,7.5l-2.1,3.7
							l-18-10.2c-11.5-6.5-20.4-11.6-23.7-13.7l-0.5-0.3c-3.8-2.4-9-2-11,0.8l-0.1,0.2L0.3,20.6z"/>
						<path id="Stroke-9" class="st0" d="M81.3,21.4C84,26.7,80.8,33.8,75,37l-1.2,0.7c-2.1,1.1-5.9,3.3-11.1,6.4l-9.2,5.4l-8.1,4.8
							L32,62l-2.1-3.6l10.1-5.9c2.8-1.6,5.6-3.3,8.3-4.8L61,40.1c5.3-3.1,9.1-5.3,11.1-6.3l0.7-0.4c4-2.1,6.3-6.8,4.8-9.9l-0.1-0.2
							L81.3,21.4z"/>
						<path id="Stroke-11" class="st0" d="M82.7,34.8c0.1,5.8-3.7,12-9.1,14.9l-1,0.5c-1.8,1-5.3,2.9-10,5.7l-9.9,5.7l-7.9,4.6
							l-13,7.6l-2.1-3.6l6.5-3.8c2.2-1.3,4.3-2.5,6.5-3.8L59,53.2c6.3-3.7,10.6-6.1,12.4-7c4.1-2.1,7.1-6.8,7.1-11l0-0.3L82.7,34.8z
							"/>
						<path id="Stroke-13" class="st0" d="M78.5,46.4l4.2,0c0,5.9-4,12.7-9.2,15.6l-2.1,1.1c-1.7,0.9-4.1,2.3-7.2,4l-10.8,6.1
							l-7.6,4.3l-12.5,7.2L31.3,81l6.3-3.6c3.1-1.8,6.3-3.6,9.4-5.3l10.9-6.2c6.8-3.9,11.5-6.5,13.4-7.5c3.9-2.1,7.1-7.3,7.2-11.7
							L78.5,46.4z"/>
						<path id="Stroke-15" class="st0" d="M28.7,28.8l4.2,0l0.1,9.6l0,10.2l0,13.1c0,7.2,0,12.2-0.1,14.4l0,0.3
							c-0.2,4.5,2.8,8.8,6.2,9.2l0.2,0l-0.2,4.2c-6-0.3-10.5-6.6-10.4-13.2l0-1.1c0.1-2.6,0.1-8.1,0.1-15.9l0-6.6
							c0-3.8,0-7.9,0-12.1L28.7,28.8z"/>
						<path id="Stroke-17" class="st0" d="M18.8,23l4.2,0l0,9.2c0,3.2,0,6.4,0,9.5l0,11.2c0,7.2,0,12.3-0.1,14.9l0,0.8
							c-0.2,4.6,2.3,9.5,6,11.7l0.2,0.1l-2,3.7c-5.1-2.8-8.5-9.2-8.4-15.3l0-1.5c0.1-2.4,0.1-6.7,0.1-12.6l0-8.5c0-4,0-8.2,0-12.4
							L18.8,23z"/>
						<path id="Stroke-19" class="st0" d="M8.3,18.3l4.2,0l0,6.9c0,4.2,0,8.3,0,12.4l0,9.9c0,7.7-0.1,13-0.2,15.2
							c-0.2,4.4,2.8,9.8,6.6,12.1l0.3,0.2l-2.1,3.6c-5.1-3-9-9.7-8.9-15.8l0-1.5c0.1-2.9,0.1-8.4,0.1-15.9l0-6.1l0-6.9L8.3,18.3z"/>
					</g>
				</g>
			</g>
		</g>
	</g>
</g>
</svg>
