<?xml version="1.0" encoding="utf-8"?>
<!-- Generator: Adobe Illustrator 24.0.0, SVG Export Plug-In . SVG Version: 6.00 Build 0)  -->
<svg version="1.1" id="图层_1" xmlns="http://www.w3.org/2000/svg" xmlns:xlink="http://www.w3.org/1999/xlink" x="0px" y="0px"
	 viewBox="0 0 495 232" style="enable-background:new 0 0 495 232;" xml:space="preserve">
<style type="text/css">
	.st0{fill:#001F58;}
</style>
<g id="首页">
	<g id="首页_x2F_登录暂时页2_x2F_1920X1280" transform="translate(-444.000000, -480.000000)">
		<g id="标题" transform="translate(-5.000000, 371.000000)">
			<g id="_x23_标题" transform="translate(449.424000, 109.456000)">
				<path id="医疗物资精细化管理服务平台" class="st0" d="M58.7,64.1v-3.7H3.8V7.2h52.6V3.5H0v60.6H58.7z M11.4,56.8
					c8.3-2.6,14.3-6.1,17.9-10.7c1.9-2.6,3.4-5.7,4.4-9.2h21.8v-3.7h-21c0.3-2.1,0.5-4.4,0.6-6.9v-4.7h16.3V18H21.5
					c1-2,1.9-4.2,2.8-6.5l-3.6-0.9c-2.4,6.8-6.2,12.3-11.2,16.6l2.8,2.6c2.7-2.2,5.1-5,7.1-8.2h11.9v4.7c-0.1,2.4-0.3,4.8-0.7,6.9
					H9.4v3.7h20.3c-0.7,2.4-1.8,4.5-3.2,6.6C23,47.7,17.3,51,9.1,53.5L11.4,56.8z M53.6,56.7l2.1-3.2c-6-4.9-12.8-9-20.2-12.5l-2,3
					C40.3,47,47,51.3,53.6,56.7z M73.5,66.2c6.2-9.1,9.4-21.2,9.7-36.4V11h47.1V7.2h-22.5c-0.9-2.7-1.7-5-2.7-7.2l-4,0.6
					c1,1.9,2,4.1,3,6.6H79.3v22.7c0,0.9-0.1,1.7-0.1,2.5c-4,3.5-8.4,6.6-13,9.2l1,3.7c4.3-2.6,8.2-5.5,11.7-8.6
					c-0.9,11.2-3.7,20.1-8.4,26.9L73.5,66.2z M73.7,28.1l3.2-1.4c-1.8-4.8-4-9.3-6.5-13.5l-3.2,1.3C69.6,18.4,71.7,22.9,73.7,28.1z
					 M104.8,66.6c4.3,0,6.6-2.2,6.6-6.6V35.5c5.9-3.8,11.1-7.8,15.6-12.2v-3.7H89.6v3.7h32.1c-4.5,4-9.3,7.3-14.3,10.2v25.4
					c0,2.9-1.4,4.3-4.2,4.3c-2.9,0-5.6-0.1-8.1-0.1l0.9,3.5H104.8z M189,66.1c6.8,0,10.7-3.2,11.4-9.7c0.6-5.5,1-20,1-43.4h-28.4
					c1.2-3.3,2.1-7.1,3-11.2l-3.7-0.9c-2,10.9-5.4,19.3-10.2,25.2l2.9,2.4c2.5-3.2,4.8-7.1,6.7-11.8h6.1
					c-2.7,14.5-7.9,25.1-15.6,31.7l2.5,2.9c8.2-7.2,13.8-18.7,16.6-34.6h6.6c-1.4,11.5-3.5,20.8-6.6,27.7c-3,6.8-7.6,12.9-13.7,18.4
					l2.4,3c6.5-5.9,11.4-12.6,14.7-20.1c2.9-7.1,5.1-16.7,6.7-29.1h6.1c-0.1,21.2-0.4,34.1-0.9,38.5c-0.7,4.9-3.5,7.3-8.1,7.3
					c-1.7,0-3.6-0.1-5.8-0.2l0.9,3.5C186.3,66,188,66.1,189,66.1z M156,66.5V42.7c2.1-1,4.2-2.1,6.3-3.2v-3.7
					c-2.1,1.2-4.2,2.2-6.3,3.2V20.2h6.6v-3.7H156V1h-3.9v15.4h-6c0.6-3.3,1-6.7,1.2-10.2L143.7,6c-0.4,8.5-2.2,16.6-5.3,24.2
					l3.4,0.9c1.4-3.5,2.6-7.2,3.5-10.9h6.8v20.7c-4.2,1.7-8.5,3.2-12.9,4.3l0.9,3.8c4-1.3,8.1-2.8,12-4.5v22H156z M273.4,30.6
					l1.4-3.4C263.5,25.1,256,21,252.1,15c0.6-1.6,1.1-3.4,1.4-5.3h13.5c-0.9,3-1.9,5.8-3.3,8.3l3.7,1.1c1.5-3.4,2.7-6.8,3.6-10.4
					V6.2h-29.6c0.8-1.6,1.5-3.2,2.1-5l-3.8-0.4c-1.7,5.2-5,9.6-10,13.2l2.4,3.1c2.9-2.2,5.3-4.6,7.2-7.3h10.5
					c-0.9,4.5-2.8,8-5.7,10.6c-3.2,2.9-8.5,5-15.8,6.6l1.5,3.5c7.9-1.9,13.7-4.5,17.2-7.8c1.3-1.3,2.4-2.8,3.5-4.4
					C255,24.3,262.6,28.4,273.4,30.6z M225.6,11l2.1-3.2c-3.6-1.9-7.6-3.6-11.9-5l-2,3C217.9,7,221.8,8.7,225.6,11z M215.3,29.6
					c5.3-3.3,9.8-6.9,13.4-10.7l-2.3-2.7c-3.7,3.7-8.2,7.2-13.7,10.4L215.3,29.6z M224.6,54.8V36.6h37.7v17.7h4V33h-45.6v21.8H224.6
					z M214.8,66.4c12.6-1,20.8-3.5,24.6-7.5c3.5-3.2,5.6-9.4,6.6-18.5l-4-0.4c-0.6,7.8-2.6,13.2-5.9,16.6
					c-3.7,3.5-11.4,5.6-22.9,6.3L214.8,66.4z M271.3,66.8l2.1-3.2c-7.7-3.7-16.2-6.8-25.6-9.2l-2,3C254.5,59.6,263,62.8,271.3,66.8z
					 M348.5,27.4V24h-17.4v-5.8h13.3V15h-13.3V9.3h15.4V6h-15.4V0.8h-3.8V6h-15.8v3.3h15.8V15h-13.8v3.2h13.8V24h-17.6v3.4H348.5z
					 M298.1,66.5V36c2.4,3.4,5.5,7.9,8.9,13.7l2.2-3.3c-3.7-5.1-7.4-9.7-11.1-13.8v-2.2h9.1v-3.7h-9.1V1.1h-3.7v25.7h-10.7v3.7h10.5
					c-2.3,7.9-6.3,15-12.1,21.2l1.7,4.2c4.5-5.6,8.1-11.9,10.7-18.9v29.6H298.1z M304.7,22.2c1.8-4.8,3-10.2,3.5-16.3L305,5.5
					c-0.4,6-1.4,11.2-3.1,15.8L304.7,22.2z M287.4,22.8l2.8-0.8c-0.9-5.6-2-10.7-3.2-15l-3,0.9C285.3,12.7,286.5,17.6,287.4,22.8z
					 M317.9,66.4V54.7h22.3v5.4c0,1.7-0.9,2.6-2.7,2.6l-5-0.1l0.9,3.5h5.3c3.5,0,5.2-1.7,5.2-5.2v-28h-29.8v33.5H317.9z M340.2,42.5
					h-22.3v-6.3h22.3V42.5z M340.2,51.6h-22.3v-6h22.3V51.6z M357.3,48.2c6.5-0.9,13.1-2.4,19.9-4.7V40c-5,1.7-10.2,3-15.3,4
					c3.9-5.1,8.9-14.2,15.1-27.3l-3.5-1.3c-1.4,3-2.7,5.8-3.9,8.5c-3.5,0.8-6.8,1.4-10.1,1.9c3.6-5.6,7.1-13.5,10.7-23.5l-3.6-1.4
					c-2.9,9.1-6.3,17.1-10.2,24c-0.4,0.6-0.9,1.1-1.5,1.4l0.9,3.5c3.9-0.6,7.8-1.3,12-2.2c-3.8,7.6-7.1,13-9.9,16.2
					c-0.4,0.4-1,0.8-1.7,1.1L357.3,48.2z M384.3,66.2v-5h29.6v5h3.7V7h-36.9v59.2H384.3z M397.4,31.9h-13V10.6h13V31.9z M413.9,31.9
					h-13V10.6h13V31.9z M397.4,57.6h-13v-22h13V57.6z M413.9,57.6h-13v-22h13V57.6z M355.6,63.3c8.1-1.7,15.3-4,21.7-6.7v-3.7
					c-6.3,2.8-13.8,5-22.2,6.7L355.6,63.3z M443.1,66.7V19.4c4-5.3,7.3-11.1,9.9-17.3l-3.7-1.7C444.6,12,437,22.2,426.5,31.3l1.2,4
					c4.2-3.5,8-7.2,11.4-11.1v42.5H443.1z M481.8,65.4c3.2,0,5.5-0.9,6.8-2.5c1.2-1.8,2-6.8,2.4-15.1l-3.6-1.2
					c-0.3,7.6-0.9,12-1.8,13.2c-0.9,1.2-2.4,1.8-4.5,1.8h-12.5c-2.5,0-3.7-1.2-3.7-3.6V32.9c9-5.6,16.8-12.2,23.5-19.6l-2.7-3
					c-5.9,6.8-12.9,12.8-20.8,18V1.2H461v29.5c-3.8,2.2-7.8,4.3-12.1,6.2l1.9,3.7c3.5-1.7,6.8-3.5,10.2-5.4v23.3
					c0,4.5,2.2,6.8,6.7,6.8H481.8z M87,118.3l3.5-1.4c-1.1-2.2-2.5-4.5-4.4-7h13v-3.5H79c0.8-1.7,1.5-3.4,2.2-5.1l-3.8-0.8
					c-2.1,5.7-5.4,10.8-9.9,15.4l3.3,2.1c2.3-2.4,4.4-5.2,6.2-8.1h5C83.9,112.7,85.6,115.4,87,118.3z M118.3,117.6l3.5-1.2
					c-1-2-2.4-4.1-4.1-6.4h13.6v-3.5h-21.5c0.6-1.6,1.3-3.3,1.9-5l-3.7-0.8c-1.7,5.3-4.2,10.1-7.8,14.3l3.3,2.2
					c1.7-2.2,3.2-4.5,4.6-7.1h5.3C115.3,112.4,116.9,115,118.3,117.6z M73.2,133.3v-9h52.7v9h3.8V121h-27.4c-0.8-2.2-1.7-4.2-2.6-6
					l-3.8,0.7c0.9,1.6,1.7,3.3,2.6,5.3H69.3v12.4H73.2z M123.1,166.5v-17.9h-40v-5.8h36.6v-13.5H79.3v37.1h3.9v-3.2h36.1v3.2H123.1z
					 M116,139.6H83.2v-6.9H116V139.6z M119.2,159.8H83.2v-7.8h36.1V159.8z M204.4,164.3v-3.8H185v-10.7h16.6v-3.7H185v-9.6h15.2V104
					H166v32.4h15.2v9.6h-16.6v3.7h16.6v10.7h-19.8v3.8H204.4z M139.6,157.2c7.7-1.9,14.9-4.2,21.5-7v-3.8c-2.7,1.2-5.6,2.3-8.6,3.4
					v-17.9h8.6V128h-8.6v-18.3h9.4V106h-22.8v3.7h9.5V128h-8.5v3.8h8.5V151c-3.2,1-6.5,1.8-9.9,2.5L139.6,157.2z M181.2,118.6h-11.4
					v-11.1h11.4V118.6z M196.4,118.6H185v-11.1h11.4V118.6z M196.4,132.9H185V122h11.4V132.9z M181.2,132.9h-11.4V122h11.4V132.9z
					 M215.1,166.7c2.9-6.6,4.5-14.9,4.9-25.1h12.9v17.6c0,2.6-1.1,3.9-3.1,3.9c-1.7,0-3.5-0.1-5.5-0.1l0.9,3.5h5.8
					c3.7,0,5.6-2,5.6-5.9v-56.2h-20v34.1c-0.1,10.4-1.6,18.9-4.5,25.6L215.1,166.7z M247,166.6v-32.2h2.4c1.7,7.3,5,13.9,9.9,19.7
					c-3,3.7-6.8,6.8-11.1,9.2l2,3.1c4.5-2.4,8.4-5.6,11.7-9.6c3.4,3.5,7.6,6.6,12.7,9.5l1.9-3.2c-4.8-2.7-8.9-5.8-12.4-9.2
					c3.6-5.3,6.1-11.9,7.6-19.7v-3.3H247v-23h20.8c-0.1,6-0.4,9.9-1,11.7c-0.5,1.2-1.2,1.9-2.1,2.2c-0.9,0.3-2.3,0.4-4.2,0.4h-4.8
					l1.1,3.4h5.5c4.6,0,7.3-1.4,8.1-4.3c0.9-2.8,1.3-8.5,1.3-17h-28.4v62.3H247z M232.8,121.2H220V108h12.8V121.2z M232.8,137.9H220
					v-13.1h12.8V137.9z M261.5,151.1c-4.2-4.9-7.1-10.5-8.7-16.7h15.4C266.8,140.8,264.6,146.4,261.5,151.1z M284.5,135.6
					c12-1.9,22.3-4.8,31.2-8.9c9,4.5,19.2,7.5,30.7,8.9l1.7-3.7c-10.4-1.2-19.9-3.6-28.2-7.3c7-3.8,12.9-8.5,17.7-14.1v-3.2h-31.9
					c1.2-1.9,2.2-3.9,3.1-6l-4-0.6c-3.1,7.4-9.1,13.7-17.9,18.7l2.4,3.1c3.7-2.2,6.9-4.6,9.7-7.2c3.9,3.5,8.1,6.5,12.5,9.1
					c-8.3,3.5-17.9,6-28.9,7.6L284.5,135.6z M315.9,122.5c-5.2-2.7-9.9-6-14.1-9.9c0.4-0.6,0.9-1.2,1.4-1.7h29
					C327.7,115.3,322.2,119.2,315.9,122.5z M286.3,166.6c13.1-4.2,21.5-9.5,25.3-16c1-1.8,1.8-3.7,2.5-5.9h22.6
					c-0.3,7.9-1,12.9-2.2,14.8c-1.2,1.9-4.2,2.8-9,2.9c-2.2,0-4.8-0.1-8.1-0.3l1,3.6c3.1,0.1,5.8,0.2,7.9,0.2
					c5.2,0,8.9-1.2,10.9-3.5c2.1-2.3,3.2-9.4,3.3-21.2H315c0.5-2.7,0.8-5.6,0.8-8.8H312c0,3.1-0.4,6-0.9,8.8h-23.3v3.5H310
					c-0.7,1.9-1.5,3.6-2.5,5.3c-4,5.5-12,10-23.8,13.5L286.3,166.6z M389.2,166.5v-25.9h30v-3.8h-30v-28.4h27.4v-3.9h-57.8v3.9h26.6
					v28.4h-29.4v3.8h29.4v25.9H389.2z M403.5,132.1c3.6-5.5,6.6-11.2,8.9-17.1l-3.6-1.7c-2.2,5.6-5.1,11.2-8.9,16.9L403.5,132.1z
					 M370.7,132.3l3.7-1.8c-2.4-6-5.1-11.6-7.9-16.6l-3.6,1.7C365.6,120.5,368.3,126.1,370.7,132.3z M487.4,134.6l3.7-1.9
					c-5.5-8.6-11.4-16.6-17.8-23.9l-3.6,1.7c3.2,3.6,6.3,7.6,9.5,11.9c-13,1.3-27,2.2-42.3,2.9c6.9-5.3,13.8-13,20.8-23.1l-4-1.4
					c-9.1,13.5-17.1,21.7-24.1,24.6l0.7,3.7c18.9-0.7,36-1.8,51.3-3.2C483.6,128.6,485.5,131.5,487.4,134.6z M439.8,166.7v-4.1h39.5
					v4.1h3.9v-29.5h-47.2v29.5H439.8z M479.2,158.8h-39.5v-17.9h39.5V158.8z"/>
				<path id="PEOPLEIINNOVATIONIINSIGHT" class="st0" d="M65.3,230.5v-5.2h3.8c2.9,0,5.5-1.5,5.5-4.5v0c0-2.7-2.1-4.3-5.2-4.3h-5.1
					v14H65.3z M69.2,224.4h-3.8v-6.9h4c2.5,0,4.2,1.2,4.2,3.4v0C73.5,223,71.8,224.4,69.2,224.4z M87.7,230.5v-1h-9V224h8v-1h-8
					v-5.5h8.9v-1h-10v14H87.7z M97.4,230.8c4.2,0,7.1-3.4,7.1-7.2c0,0,0,0,0,0c0-3.8-2.8-7.2-7-7.2c-4.2,0-7.1,3.4-7.1,7.2v0
					C90.4,227.4,93.2,230.8,97.4,230.8z M97.5,229.8c-3.5,0-6-2.8-6-6.3v0c0-3.5,2.5-6.3,5.9-6.3c3.5,0,6,2.8,6,6.3v0
					C103.4,227,100.9,229.8,97.5,229.8z M109.1,230.5v-5.2h3.8c2.9,0,5.5-1.5,5.5-4.5v0c0-2.7-2.1-4.3-5.2-4.3H108v14H109.1z
					 M112.9,224.4h-3.8v-6.9h4c2.5,0,4.2,1.2,4.2,3.4v0C117.3,223,115.5,224.4,112.9,224.4z M130.7,230.5v-1h-8.2v-13h-1v14H130.7z
					 M143.8,230.5v-1h-9V224h8v-1h-8v-5.5h8.9v-1h-10v14H143.8z M178.4,230.5v-14h-1v14H178.4z M213.8,230.5v-14h-1v14H213.8z
					 M219.1,230.5v-12.4l9.9,12.4h0.8v-14h-1v12.2l-9.7-12.2h-1v14H219.1z M234.9,230.5v-12.4l9.9,12.4h0.8v-14h-1v12.2l-9.7-12.2
					h-1v14H234.9z M256.1,230.8c4.2,0,7.1-3.4,7.1-7.2c0,0,0,0,0,0c0-3.8-2.8-7.2-7-7.2s-7.1,3.4-7.1,7.2v0
					C249.1,227.4,251.9,230.8,256.1,230.8z M256.2,229.8c-3.5,0-6-2.8-6-6.3v0c0-3.5,2.5-6.3,5.9-6.3c3.5,0,6,2.8,6,6.3v0
					C262.1,227,259.6,229.8,256.2,229.8z M272.6,230.6l6.2-14.1h-1.1l-5.5,12.9l-5.5-12.9h-1.2l6.2,14.1H272.6z M281.6,230.5
					l1.8-3.9h8.3l1.8,3.9h1.1l-6.5-14.1h-1l-6.5,14.1H281.6z M291.2,225.7h-7.4l3.7-8.1L291.2,225.7z M302.5,230.5v-13h4.9v-1h-10.8
					v1h4.9v13H302.5z M311.7,230.5v-14h-1v14H311.7z M322.4,230.8c4.2,0,7.1-3.4,7.1-7.2c0,0,0,0,0,0c0-3.8-2.8-7.2-7-7.2
					c-4.2,0-7.1,3.4-7.1,7.2v0C315.4,227.4,318.1,230.8,322.4,230.8z M322.4,229.8c-3.5,0-6-2.8-6-6.3v0c0-3.5,2.5-6.3,5.9-6.3
					c3.5,0,6,2.8,6,6.3v0C328.4,227,325.9,229.8,322.4,229.8z M334,230.5v-12.4l9.9,12.4h0.8v-14h-1v12.2l-9.7-12.2h-1v14H334z
					 M380,230.5v-14h-1v14H380z M415.4,230.5v-14h-1v14H415.4z M420.7,230.5v-12.4l9.9,12.4h0.8v-14h-1v12.2l-9.7-12.2h-1v14H420.7z
					 M440.3,230.7c2.7,0,4.6-1.6,4.6-3.8v0c0-2-1.4-3.2-4.6-3.9c-3.3-0.7-4.1-1.6-4.1-3.1v0c0-1.5,1.4-2.6,3.4-2.6
					c1.5,0,2.9,0.4,4.2,1.6l0.7-0.8c-1.4-1.1-2.8-1.7-4.8-1.7c-2.6,0-4.5,1.6-4.5,3.7v0c0,2.1,1.4,3.3,4.7,3.9c3.2,0.6,4,1.5,4,3v0
					c0,1.6-1.4,2.8-3.5,2.8c-2.1,0-3.5-0.7-5-2.1l-0.7,0.8C436.3,230,438,230.7,440.3,230.7z M449.5,230.5v-14h-1v14H449.5z
					 M460.2,230.8c2.3,0,4.2-1,5.5-2.1v-5.4h-5.7v1h4.7v4c-1,0.9-2.7,1.6-4.5,1.6c-3.7,0-6-2.7-6-6.3v0c0-3.4,2.4-6.3,5.8-6.3
					c2.1,0,3.4,0.7,4.5,1.7l0.7-0.8c-1.4-1.2-2.8-1.8-5.1-1.8c-4.2,0-6.9,3.5-6.9,7.2v0C453.2,227.5,455.8,230.8,460.2,230.8z
					 M470.5,230.5V224h9v6.6h1v-14h-1v6.5h-9v-6.5h-1v14H470.5z M489.6,230.5v-13h4.9v-1h-10.8v1h4.9v13H489.6z"/>
			</g>
		</g>
	</g>
</g>
</svg>
