<?xml version="1.0" standalone="no"?>
<!DOCTYPE svg PUBLIC "-//W3C//DTD SVG 1.1//EN" "http://www.w3.org/Graphics/SVG/1.1/DTD/svg11.dtd" >
<!--
2013-9-30: Created.
-->
<svg>
<metadata>
Created by iconfont
</metadata>
<defs>

<font id="iconfont" horiz-adv-x="1024" >
  <font-face
    font-family="iconfont"
    font-weight="500"
    font-stretch="normal"
    units-per-em="1024"
    ascent="896"
    descent="-128"
  />
    <missing-glyph />
    
    <glyph glyph-name="search" unicode="&#58888;" d="M759.466667 196.266667l85.333333-85.333334c25.6-25.6 25.6-64 0-89.6-25.6-25.6-64-25.6-89.6 0l-89.6 89.6c-55.466667-34.133333-119.466667-51.2-183.466667-51.2-196.266667 0-358.4 157.866667-358.4 358.4 0 196.266667 157.866667 358.4 358.4 358.4 196.266667 0 358.4-157.866667 358.4-358.4-4.266667-85.333333-34.133333-162.133333-81.066666-221.866666zM640 256c42.666667 42.666667 68.266667 98.133333 68.266667 162.133333 0 128-102.4 230.4-230.4 230.4-128 0-230.4-102.4-230.4-230.4 0-128 102.4-230.4 230.4-230.4 64 0 119.466667 25.6 162.133333 68.266667z"  horiz-adv-x="1024" />

    
    <glyph glyph-name="info" unicode="&#58889;" d="M529.066667-17.066667c-213.333333 0-384 170.666667-384 384s170.666667 384 384 384 384-170.666667 384-384c0-102.4-42.666667-200.533333-110.933334-273.066666-76.8-68.266667-170.666667-110.933333-273.066666-110.933334z m192 192c51.2 51.2 81.066667 119.466667 81.066666 192 0 149.333333-123.733333 273.066667-273.066666 273.066667C379.733333 640 256 516.266667 256 366.933333c0-149.333333 123.733333-273.066667 273.066667-273.066666 72.533333 0 140.8 29.866667 192 81.066666zM473.6 298.666667c0 4.266667 0 8.533333 4.266667 21.333333s8.533333 25.6 17.066666 38.4 25.6 29.866667 51.2 59.733333c12.8 12.8 21.333333 29.866667 21.333334 38.4 0 12.8-4.266667 21.333333-8.533334 29.866667-4.266667 8.533333-12.8 8.533333-25.6 8.533333s-21.333333-4.266667-29.866666-17.066666c-8.533333-8.533333-12.8-29.866667-17.066667-55.466667L384 439.466667c4.266667 46.933333 17.066667 85.333333 42.666667 115.2 25.6 29.866667 59.733333 42.666667 110.933333 42.666666 38.4 0 72.533333-8.533333 93.866667-29.866666 34.133333-25.6 51.2-64 51.2-106.666667 0-17.066667-4.266667-38.4-12.8-55.466667-8.533333-17.066667-25.6-38.4-51.2-64-17.066667-17.066667-29.866667-29.866667-34.133334-42.666666h-110.933333z m-4.266667-42.666667h106.666667v-106.666667H469.333333V256z"  horiz-adv-x="1024" />

    
    <glyph glyph-name="fold" unicode="&#58890;" d="M802.986667-8.533333l-119.466667-119.466667-512 512 512 512 119.466667-119.466667-392.533334-392.533333 392.533334-392.533333"  horiz-adv-x="1024" />

    
    <glyph glyph-name="notice" unicode="&#58891;" d="M622.933333-25.6H418.133333c0-55.466667 46.933333-102.4 102.4-102.4s102.4 46.933333 102.4 102.4zM853.333333 460.8c0 157.866667-110.933333 290.133333-256 324.266667v34.133333c0 42.666667-34.133333 76.8-76.8 76.8s-76.8-34.133333-76.8-76.8v-34.133333c-145.066667-34.133333-256-166.4-256-324.266667v-238.933333L85.333333 119.466667v-93.866667h870.4v93.866667L853.333333 221.866667v238.933333zM332.8 170.666667v290.133333c0 128 93.866667 187.733333 187.733333 187.733333s187.733333-59.733333 187.733334-187.733333V170.666667H332.8z"  horiz-adv-x="1024" />

    
    <glyph glyph-name="unfold" unicode="&#58892;" d="M256-8.533333l392.533333 392.533333L256 776.533333 375.466667 896l512-512-512-512L256-8.533333"  horiz-adv-x="1024" />

    
    <glyph glyph-name="exchange" unicode="&#58895;" d="M106.666667 256c-12.8 38.4-21.333333 76.8-21.333334 119.466667v4.266666C85.333333 618.666667 277.333333 810.666667 512 810.666667c128 0 243.2-55.466667 320-145.066667l-102.4-59.733333C674.133333 661.333333 597.333333 695.466667 512 695.466667c-149.333333 0-273.066667-106.666667-302.933333-247.466667l140.8 81.066667 55.466666-106.666667-298.666666-166.4z m810.666666 260.266667c12.8-42.666667 21.333333-85.333333 21.333334-132.266667 0-115.2-46.933333-221.866667-123.733334-302.933333-81.066667-76.8-187.733333-123.733333-302.933333-123.733334-128 0-243.2 55.466667-320 145.066667l102.4 59.733333c55.466667-55.466667 132.266667-89.6 217.6-89.6 85.333333 0 162.133333 34.133333 217.6 89.6 42.666667 42.666667 72.533333 98.133333 85.333333 153.6l-140.8-81.066666-55.466666 106.666666 196.266666 110.933334 102.4 64z"  horiz-adv-x="1024" />

    
    <glyph glyph-name="settings" unicode="&#58896;" d="M755.2 349.866667c0 12.8 4.266667 21.333333 4.266667 34.133333s0 21.333333-4.266667 34.133333l72.533333 55.466667c8.533333 4.266667 8.533333 12.8 4.266667 21.333333l-68.266667 119.466667c-4.266667 8.533333-12.8 8.533333-21.333333 8.533333l-85.333333-34.133333c-17.066667 12.8-38.4 25.6-59.733334 34.133333l-12.8 89.6c0 8.533333-8.533333 12.8-17.066666 12.8h-136.533334c-4.266667 0-12.8-4.266667-12.8-12.8l-12.8-93.866666c-21.333333-8.533333-38.4-17.066667-59.733333-29.866667l-85.333333 34.133333c-4.266667 0-12.8 0-17.066667-8.533333L174.933333 494.933333c-4.266667-8.533333-4.266667-17.066667 4.266667-21.333333l72.533333-55.466667c0-12.8-4.266667-21.333333-4.266666-34.133333s0-21.333333 4.266666-34.133333l-72.533333-55.466667c-8.533333-4.266667-8.533333-12.8-4.266667-21.333333l68.266667-119.466667c4.266667-8.533333 12.8-8.533333 21.333333-8.533333l85.333334 34.133333c17.066667-12.8 38.4-25.6 59.733333-34.133333l12.8-89.6c0-8.533333 8.533333-12.8 17.066667-12.8h136.533333c8.533333 0 17.066667 4.266667 17.066667 12.8l12.8 89.6c21.333333 8.533333 38.4 21.333333 59.733333 34.133333l85.333333-34.133333c8.533333-4.266667 17.066667 0 21.333334 8.533333l68.266666 119.466667c4.266667 8.533333 4.266667 17.066667-4.266666 21.333333l-81.066667 55.466667z m-251.733333-85.333334C435.2 264.533333 384 320 384 384s55.466667 119.466667 119.466667 119.466667 119.466667-55.466667 119.466666-119.466667-55.466667-119.466667-119.466666-119.466667z"  horiz-adv-x="1024" />

    
    <glyph glyph-name="Qrcode" unicode="&#58897;" d="M810.666667-42.666667v85.333334c25.6 0 42.666667 17.066667 42.666666 42.666666v85.333334h85.333334v-85.333334c0-72.533333-55.466667-128-128-128z m-85.333334 0h-170.666666v85.333334h170.666666v-85.333334z m0 384h213.333334v-85.333333h-213.333334v85.333333z m-85.333333 0v-213.333333h-85.333333v213.333333h85.333333zM213.333333 810.666667h256v-384H85.333333V682.666667c0 72.533333 55.466667 128 128 128z m170.666667-85.333334H213.333333c-25.6 0-42.666667-17.066667-42.666666-42.666666v-170.666667h213.333333V725.333333z m426.666667 85.333334c72.533333 0 128-55.466667 128-128v-256h-384V810.666667h256z m-170.666667-85.333334v-213.333333h213.333333V682.666667c0 25.6-17.066667 42.666667-42.666666 42.666666h-170.666667zM213.333333-42.666667c-72.533333 0-128 55.466667-128 128v256h384v-384H213.333333z m170.666667 85.333334v213.333333H170.666667v-170.666667c0-25.6 17.066667-42.666667 42.666666-42.666666h170.666667zM213.333333 682.666667h128v-128H213.333333V682.666667z m0-469.333334h128v-128H213.333333v128zM682.666667 682.666667h128v-128h-128V682.666667z m0-469.333334h128v-128h-128v128z"  horiz-adv-x="1024" />

    
    <glyph glyph-name="cangku" unicode="&#58915;" d="M67.474286-52.553143h895.634285a27.611429 27.611429 0 1 1 0 55.222857H67.474286a27.611429 27.611429 0 0 1 0-55.222857zM54.491429 360.082286v-365.714286H109.714286v365.714286zM344.649143 506.368v-512h55.222857v512zM827.392 652.653714v-658.285714h55.222857v658.285714zM404.736 553.581714L20.845714 382.646857a27.611429 27.611429 0 1 1 22.454857-50.468571l383.890286 170.934857a27.611429 27.611429 0 0 1-22.454857 50.468571zM598.820571 847.835429l-345.965714-260.205715a27.574857 27.574857 0 1 1 33.243429-44.068571l345.965714 260.169143a27.574857 27.574857 0 1 1-33.28 44.105143zM642.121143 846.189714l352.182857-266.349714a27.209143 27.209143 0 0 0 5.339429-38.107429 27.136 27.136 0 0 0-38.034286-5.302857l-352.182857 266.349715a27.209143 27.209143 0 0 0-5.339429 38.107428 27.136 27.136 0 0 0 38.034286 5.302857z"  horiz-adv-x="1024" />

    
    <glyph glyph-name="caigou" unicode="&#58918;" d="M848.822857 200.740571l117.028572 336.457143c0 3.657143 0 10.971429-7.314286 10.971429h-555.885714c-14.628571 0-29.257143 10.971429-29.257143 29.257143s10.971429 29.257143 29.257143 29.257143h555.885714c7.314286 0 14.628571 0 21.942857-3.657143 32.914286-10.971429 51.2-47.542857 40.228571-80.457143l-131.657142-373.028572h-468.114286c-43.885714 0-80.457143 25.6-95.085714 65.828572l-186.514286 497.371428c0 3.657143-3.657143 7.314286-7.314286 7.314286H25.965714c-14.628571-3.657143-25.6 10.971429-25.6 25.6s10.971429 29.257143 29.257143 29.257143h102.4c25.6 0 51.2-18.285714 58.514286-40.228571l186.514286-501.028572c7.314286-18.285714 21.942857-29.257143 43.885714-29.257143h427.885714z m-493.714286-292.571428c-51.2 0-91.428571 40.228571-91.428571 91.428571s40.228571 91.428571 91.428571 91.428572 91.428571-40.228571 91.428572-91.428572-40.228571-91.428571-91.428572-91.428571z m0 54.857143c18.285714 0 36.571429 14.628571 36.571429 36.571428s-14.628571 36.571429-36.571429 36.571429c-18.285714 0-36.571429-14.628571-36.571428-36.571429s18.285714-36.571429 36.571428-36.571428z m475.428572-54.857143c-51.2 0-91.428571 40.228571-91.428572 91.428571s40.228571 91.428571 91.428572 91.428572 91.428571-40.228571 91.428571-91.428572-40.228571-91.428571-91.428571-91.428571z m0 54.857143c18.285714 0 36.571429 14.628571 36.571428 36.571428s-14.628571 36.571429-36.571428 36.571429c-18.285714 0-36.571429-14.628571-36.571429-36.571429s18.285714-36.571429 36.571429-36.571428z"  horiz-adv-x="1024" />

    
    <glyph glyph-name="xitong" unicode="&#58919;" d="M479.085714 566.857143H402.285714c-21.942857 0-36.571429 14.628571-36.571428 36.571428V822.857143c0 21.942857 14.628571 36.571429 36.571428 36.571428h219.428572c21.942857 0 36.571429-14.628571 36.571428-36.571428v-219.428572c0-21.942857-14.628571-36.571429-36.571428-36.571428h-84.114286v-124.342857H841.142857c36.571429 0 65.828571-29.257143 65.828572-65.828572V201.142857H987.428571c21.942857 0 36.571429-14.628571 36.571429-36.571428v-219.428572c0-21.942857-14.628571-36.571429-36.571429-36.571428h-219.428571c-21.942857 0-36.571429 14.628571-36.571429 36.571428v219.428572c0 21.942857 14.628571 36.571429 36.571429 36.571428h80.457143v179.2c0 3.657143-3.657143 7.314286-7.314286 7.314286h-303.542857V201.142857H621.714286c21.942857 0 36.571429-14.628571 36.571428-36.571428v-219.428572c0-21.942857-14.628571-36.571429-36.571428-36.571428h-219.428572c-21.942857 0-36.571429 14.628571-36.571428 36.571428v219.428572c0 21.942857 14.628571 36.571429 36.571428 36.571428h76.8v186.514286H182.857143c-3.657143 0-7.314286-3.657143-7.314286-7.314286V201.142857H256c21.942857 0 36.571429-14.628571 36.571429-36.571428v-219.428572c0-21.942857-14.628571-36.571429-36.571429-36.571428H36.571429c-21.942857 0-36.571429 14.628571-36.571429 36.571428v219.428572c0 21.942857 14.628571 36.571429 36.571429 36.571428h80.457142v179.2c0 36.571429 29.257143 65.828571 65.828572 65.828572h296.228571V566.857143zM54.857143 146.285714v-182.857143h182.857143v182.857143h-182.857143z m365.714286-182.857143h182.857142v182.857143h-182.857142v-182.857143z m365.714285 0h182.857143v182.857143h-182.857143v-182.857143z m-365.714285 841.142858v-182.857143h182.857142v182.857143h-182.857142z"  horiz-adv-x="1024" />

    
    <glyph glyph-name="shuju" unicode="&#58920;" d="M128-7.314286h793.6c14.628571 0 29.257143-10.971429 29.257143-29.257143s-10.971429-29.257143-29.257143-29.257142H102.4c-14.628571 0-29.257143 10.971429-29.257143 29.257142v3.657143V793.6c0 18.285714 10.971429 29.257143 29.257143 29.257143s29.257143-10.971429 29.257143-29.257143v-800.914286zM292.571429 347.428571c21.942857 0 36.571429-14.628571 36.571428-36.571428v-193.828572c0-21.942857-14.628571-36.571429-36.571428-36.571428s-36.571429 14.628571-36.571429 36.571428V310.857143c0 21.942857 14.628571 36.571429 36.571429 36.571428z m182.857142-36.571428c21.942857 0 36.571429-14.628571 36.571429-36.571429v-146.285714c0-21.942857-14.628571-36.571429-36.571429-36.571429s-36.571429 14.628571-36.571428 36.571429v146.285714c0 21.942857 14.628571 36.571429 36.571428 36.571429z m219.428572 219.428571c21.942857 0 36.571429-14.628571 36.571428-36.571428v-362.057143c0-21.942857-14.628571-36.571429-36.571428-36.571429s-36.571429 14.628571-36.571429 36.571429V493.714286c0 21.942857 14.628571 36.571429 36.571429 36.571428z m182.857143-109.714285c21.942857 0 36.571429-14.628571 36.571428-36.571429v-263.314286c0-21.942857-14.628571-36.571429-36.571428-36.571428s-36.571429 14.628571-36.571429 36.571428V384c0 21.942857 14.628571 36.571429 36.571429 36.571429zM263.314286 610.742857c-14.628571 14.628571-10.971429 36.571429 3.657143 51.2s36.571429 10.971429 51.2-3.657143c43.885714-51.2 87.771429-65.828571 142.628571-58.514285 36.571429 7.314286 65.828571 25.6 113.371429 69.485714-3.657143-3.657143 21.942857 18.285714 29.257142 25.6 32.914286 25.6 54.857143 43.885714 84.114286 54.857143 65.828571 25.6 135.314286 0 208.457143-65.828572 14.628571-14.628571 14.628571-36.571429 3.657143-51.2-14.628571-14.628571-36.571429-14.628571-51.2-3.657143-54.857143 51.2-98.742857 65.828571-135.314286 51.2-18.285714-7.314286-36.571429-18.285714-62.171428-40.228571-7.314286-3.657143-29.257143-25.6-29.257143-25.6-54.857143-51.2-95.085714-73.142857-146.285715-84.114286-80.457143-18.285714-149.942857 10.971429-212.114285 80.457143z"  horiz-adv-x="1024" />

    
    <glyph glyph-name="caiwu" unicode="&#58921;" d="M939.885714 347.428571V566.857143c0 14.628571-10.971429 25.6-25.6 25.6H109.714286c-14.628571 0-25.6-10.971429-25.6-25.6v-219.428572h855.771428z m0-47.542857H731.428571v-25.6c0-40.228571-32.914286-73.142857-73.142857-73.142857h-292.571428c-40.228571 0-73.142857 32.914286-73.142857 73.142857v25.6H84.114286V54.857143c0-14.628571 10.971429-25.6 25.6-25.6h804.571428c14.628571 0 25.6 10.971429 25.6 25.6v245.028571z m-603.428571 0v-25.6c0-14.628571 10.971429-25.6 25.6-25.6h292.571428c14.628571 0 25.6 10.971429 25.6 25.6v25.6H336.457143zM292.571429 640V713.142857c0 40.228571 32.914286 73.142857 73.142857 73.142857h292.571428c40.228571 0 73.142857-32.914286 73.142857-73.142857v-73.142857h182.857143c40.228571 0 73.142857-32.914286 73.142857-73.142857v-512c0-40.228571-32.914286-73.142857-73.142857-73.142857H109.714286c-40.228571 0-73.142857 32.914286-73.142857 73.142857V566.857143c0 40.228571 32.914286 73.142857 73.142857 73.142857h182.857143z m391.314285 73.142857c0 14.628571-10.971429 25.6-25.6 25.6h-292.571428c-14.628571 0-25.6-10.971429-25.6-25.6v-62.171428h347.428571V713.142857z"  horiz-adv-x="1024" />

    
    <glyph glyph-name="Reportform" unicode="&#58922;" d="M1020.431081 446.182031a46.44462 46.44462 0 0 1 3.657057-21.94234v-3.657056h-36.570567zM991.174628 566.8649009999999a359.488669 359.488669 0 0 0 18.285283-58.512906L903.405268 420.582635h-87.76936z m-58.512907 109.7117l32.91351-54.85585-237.708682-201.138116h-98.74053z m-76.798189 87.769359l43.884679-43.884679-351.077438-296.22159v84.112304z m-98.74053 69.484077a475.417365 475.417365 0 0 0 54.85585-36.570567l-263.308079-219.423399V661.9483740000001zM559.641943 896l-10.97117-7.314113V896z m69.484076-10.97117c25.599397-7.314113 47.541737-14.628227 69.484076-21.94234L548.670773 731.432451V815.544754zM204.907447 32.93462899999997a467.006135 467.006135 0 0 1 775.296011 321.820986H581.584282z m-91.426416 106.054643l362.048608 307.192759v402.276232A463.349078 463.349078 0 0 1 47.654011 384.012068a500.28535 500.28535 0 0 1 65.82702-245.022796z m-7.314114-65.827019A511.987932 511.987932 0 0 0 475.529639 896h47.541737v-471.760309z m29.256454-36.570567l427.875628 358.391552H1024.088138v-10.97117a511.987932 511.987932 0 0 0-511.987932-511.987931 502.113879 502.113879 0 0 0-376.676835 164.567549z"  horiz-adv-x="1024" />

    
    <glyph glyph-name="info1" unicode="&#58923;" d="M512 42.666667c-187.733333 0-341.333333 153.6-341.333333 341.333333s153.6 341.333333 341.333333 341.333333 341.333333-153.6 341.333333-341.333333-153.6-341.333333-341.333333-341.333333z m0 55.466666a285.866667 285.866667 0 1 1 0 571.733334 285.866667 285.866667 0 0 1 0-571.733334zM512 597.333333c-68.266667 0-119.466667-55.466667-119.466667-119.466666 0-17.066667 12.8-21.333333 21.333334-21.333334 17.066667 0 21.333333 12.8 21.333333 21.333334 0 42.666667 34.133333 72.533333 72.533333 72.533333 42.666667 0 72.533333-34.133333 72.533334-72.533333v-17.066667c-4.266667-17.066667-17.066667-25.6-25.6-38.4-64-46.933333-68.266667-110.933333-68.266667-115.2 0-17.066667 12.8-25.6 21.333333-25.6 12.8 0 21.333333 12.8 21.333334 21.333333 0 0 0 12.8 8.533333 25.6 8.533333 17.066667 21.333333 38.4 42.666667 46.933334 21.333333 17.066667 38.4 38.4 46.933333 64v8.533333c0 8.533333 4.266667 17.066667 4.266667 25.6C631.466667 537.6 580.266667 597.333333 512 597.333333z m-38.4-392.533333c0-17.066667 17.066667-34.133333 34.133333-34.133333s34.133333 17.066667 34.133334 34.133333-17.066667 34.133333-34.133334 34.133333-34.133333-12.8-34.133333-34.133333z"  horiz-adv-x="1024" />

    
    <glyph glyph-name="user" unicode="&#58924;" d="M512-128C230.4-128 0 102.4 0 384S230.4 896 512 896s512-230.4 512-512-230.4-512-512-512z m0 55.466667c251.733333 0 456.533333 204.8 456.533333 456.533333S763.733333 840.533333 512 840.533333 55.466667 635.733333 55.466667 384 260.266667-72.533333 512-72.533333z m-128 366.933333c-64 42.666667-102.4 110.933333-102.4 192 0 128 102.4 230.4 230.4 230.4s230.4-102.4 230.4-230.4c0-81.066667-42.666667-153.6-102.4-192 102.4-42.666667 183.466667-132.266667 221.866667-247.466667-21.333333-29.866667-34.133333-38.4-46.933334-46.933333-38.4 145.066667-157.866667 256-302.933333 256-140.8 0-264.533333-106.666667-302.933333-251.733333-25.6 17.066667-25.6 17.066667-46.933334 42.666666 38.4 115.2 119.466667 209.066667 221.866667 247.466667z m128 362.666667c-93.866667 0-166.4-76.8-166.4-166.4s76.8-166.4 166.4-166.4 166.4 76.8 166.4 166.4-72.533333 166.4-166.4 166.4z"  horiz-adv-x="1024" />

    
    <glyph glyph-name="notice1" unicode="&#58925;" d="M558.933333 746.666667c81.066667-8.533333 140.8-42.666667 192-98.133334s76.8-123.733333 81.066667-204.8v-302.933333h55.466667c17.066667 0 29.866667-12.8 29.866666-29.866667 0-17.066667-12.8-29.866667-29.866666-29.866666h-238.933334c0-34.133333-12.8-55.466667-34.133333-81.066667-21.333333-21.333333-51.2-34.133333-85.333333-34.133333s-64 12.8-85.333334 34.133333-34.133333 46.933333-34.133333 81.066667H162.133333c-17.066667 0-29.866667 12.8-29.866666 29.866666 0 17.066667 12.8 29.866667 29.866666 29.866667h55.466667v302.933333c0 81.066667 29.866667 149.333333 81.066667 204.8s115.2 89.6 192 98.133334v34.133333c0 17.066667 17.066667 29.866667 34.133333 29.866667s34.133333-12.8 34.133333-29.866667v-34.133333zM768 140.8v302.933333c0 68.266667-25.6 128-72.533333 170.666667s-102.4 68.266667-170.666667 72.533333c-68.266667 0-128-25.6-170.666667-72.533333s-68.266667-102.4-72.533333-170.666667v-302.933333H768z m-183.466667-59.733333h-123.733333c0-17.066667 8.533333-29.866667 17.066667-42.666667s25.6-17.066667 42.666666-17.066667 29.866667 4.266667 42.666667 17.066667c12.8 8.533333 21.333333 25.6 21.333333 42.666667z"  horiz-adv-x="1024" />

    
    <glyph glyph-name="Qrcode1" unicode="&#58926;" d="M384 810.666667h4.266667c21.333333-4.266667 38.4-25.6 42.666666-51.2V516.266667c0-25.6-17.066667-46.933333-42.666666-51.2H140.8c-29.866667 0-51.2 21.333333-55.466667 46.933333V763.733333 768c4.266667 17.066667 21.333333 34.133333 42.666667 42.666667h256z m-4.266667-294.4V755.2H140.8v-238.933333h238.933333z m512 294.4h4.266667c21.333333-4.266667 38.4-25.6 42.666667-51.2V516.266667c0-25.6-17.066667-46.933333-42.666667-51.2h-247.466667c-29.866667 0-55.466667 21.333333-55.466666 55.466666V755.2c0 34.133333 21.333333 51.2 46.933333 55.466667h251.733333z m-8.533333-55.466667h-238.933333v-238.933333h238.933333V755.2zM85.333333 256v4.266667c4.266667 21.333333 25.6 38.4 51.2 42.666666H379.733333c25.6 0 46.933333-17.066667 51.2-42.666666v-247.466667c0-29.866667-21.333333-55.466667-55.466666-55.466667H140.8c-29.866667 0-51.2 21.333333-55.466667 46.933334V256z m55.466667-4.266667v-238.933333h238.933333v238.933333H140.8zM85.333333 388.266667c4.266667 4.266667 4.266667 12.8 8.533334 17.066666 4.266667 4.266667 12.8 8.533333 17.066666 8.533334H908.8c12.8 0 21.333333-4.266667 25.6-12.8 8.533333-17.066667 0-38.4-17.066667-38.4H115.2c-12.8 0-21.333333 4.266667-25.6 17.066666 0 4.266667 0 4.266667-4.266667 8.533334 0-4.266667 0-4.266667 0 0zM516.266667 810.666667c8.533333-4.266667 17.066667-4.266667 21.333333-12.8 0-4.266667 4.266667-8.533333 4.266667-12.8v-290.133334c0-12.8-4.266667-21.333333-17.066667-25.6-8.533333-4.266667-21.333333-4.266667-29.866667 4.266667-4.266667 4.266667-8.533333 12.8-8.533333 21.333333v85.333334 200.533333c0 21.333333 4.266667 25.6 21.333333 34.133333 4.266667-4.266667 4.266667-4.266667 8.533334-4.266666z m21.333333-678.4v-145.066667c0-12.8-8.533333-25.6-21.333333-29.866667-17.066667-4.266667-29.866667 8.533333-29.866667 21.333334v8.533333 285.866667c0 12.8 4.266667 21.333333 12.8 25.6 17.066667 8.533333 38.4 0 38.4-17.066667v-149.333333z m81.066667 0v145.066666c0 12.8 8.533333 25.6 21.333333 29.866667 17.066667 4.266667 29.866667-8.533333 29.866667-21.333333V-8.533333c0-8.533333-4.266667-21.333333-12.8-25.6-17.066667-8.533333-38.4 0-38.4 17.066666v8.533334 140.8z m320 0v-145.066667c0-12.8-8.533333-25.6-21.333334-29.866667-17.066667-4.266667-29.866667 4.266667-34.133333 21.333334v8.533333 285.866667c0 8.533333 4.266667 21.333333 12.8 25.6 17.066667 8.533333 38.4 0 38.4-17.066667v-8.533333c4.266667-46.933333 4.266667-93.866667 4.266667-140.8z m-132.266667-93.866667v-51.2c0-12.8-8.533333-25.6-21.333333-25.6-17.066667-4.266667-29.866667 8.533333-34.133334 25.6v64 42.666667c0 12.8 8.533333 25.6 21.333334 25.6 17.066667 4.266667 29.866667-8.533333 34.133333-25.6v-55.466667z m-55.466667 200.533333v38.4c0 21.333333 17.066667 29.866667 34.133334 25.6 8.533333-4.266667 17.066667-12.8 17.066666-25.6v-81.066666c0-17.066667-12.8-25.6-25.6-25.6s-25.6 12.8-25.6 25.6v42.666666z"  horiz-adv-x="1024" />

    
    <glyph glyph-name="morentouxiang" unicode="&#58927;" d="M512 896c282.763636 0 512-229.236364 512-512S794.763636-128 512-128 0 101.236364 0 384 229.236364 896 512 896z m0-713.69697a323.428848 323.428848 0 0 1-258.01697-128.372363A417.233455 417.233455 0 0 1 512-34.909091a417.109333 417.109333 0 0 1 257.970424 88.839758A323.335758 323.335758 0 0 1 512 182.30303z m0 620.606061C280.638061 802.909091 93.090909 615.361939 93.090909 384a417.171394 417.171394 0 0 1 94.021818-264.486788 417.419636 417.419636 0 0 0 176.64 128.636121C294.089697 294.94303 248.242424 374.442667 248.242424 464.678788 248.242424 608.628364 364.947394 725.333333 508.89697 725.333333s260.654545-116.70497 260.654545-260.654545c0-89.274182-44.869818-168.060121-113.291636-215.04a417.481697 417.481697 0 0 0 180.627394-130.125576A417.186909 417.186909 0 0 1 930.909091 384C930.909091 615.361939 743.361939 802.909091 512 802.909091z m-3.10303-170.666667C416.349091 632.242424 341.333333 557.226667 341.333333 464.678788c0-92.547879 75.015758-167.563636 167.563637-167.563636 92.547879 0 167.563636 75.015758 167.563636 167.563636 0 92.547879-75.015758 167.563636-167.563636 167.563636z"  horiz-adv-x="1024" />

    
    <glyph glyph-name="shezhi" unicode="&#58928;" d="M987.105118 464.665477h-45.565038c-20.798648 0-45.437047 15.742977-50.684706 36.733612l-26.046307 66.811657a54.076485 54.076485 0 0 0 10.431322 61.627994l31.22997 31.485954a39.805413 39.805413 0 0 1 0 56.316339l-55.932364 56.444331a39.037463 39.037463 0 0 1-55.932364 0l-31.22997-31.485953a52.988556 52.988556 0 0 0-61.116028-10.495318l-66.29969 26.238295c-20.798648 5.247659-36.477629 31.485953-36.477629 51.132676V855.360082A39.741417 39.741417 0 0 1 559.292926 895.99744H482.497918c-25.982311 0-40.317379-20.990636-40.31738-40.637358v-51.196673c0-20.92664-15.614985-45.821022-36.413633-51.06868l-66.29969-26.238295a52.988556 52.988556 0 0 0-61.116028 10.495318l-42.877213 40.637359a39.037463 39.037463 0 0 1-55.99636 0l-55.932364-56.31634a39.805413 39.805413 0 0 1 0-56.444331l31.22997-31.421957a54.076485 54.076485 0 0 0 10.431322-61.627995l-26.046307-66.875653c-5.119667-20.990636-31.165974-36.733612-50.684706-36.733612H40.350657c-25.982311 0-40.317379-20.92664-40.317379-40.637359v-77.306975c0-26.238295 20.798648-40.637359 40.317379-40.637358h45.501043c20.798648 0 45.501042-15.742977 50.748701-36.733613l25.982311-66.875653a54.076485 54.076485 0 0 0-10.367326-61.627994l-31.22997-31.421957a39.805413 39.805413 0 0 1 0-56.380336l55.932364-56.380335a39.037463 39.037463 0 0 1 55.868369 0l31.22997 31.421958a52.988556 52.988556 0 0 0 61.116027 10.495317l66.363687-26.238294c20.798648-5.183663 36.413633-31.421958 36.413633-51.068681v-52.476589c0-26.238295 20.798648-40.637359 40.317379-40.637358h76.667017c26.046307 0 40.317379 20.990636 40.317379 40.637358v45.885018c0 20.990636 15.614985 45.885017 36.477629 51.196672l66.299691 26.174299a52.988556 52.988556 0 0 0 61.116027-10.495318l31.22997-31.485953a39.037463 39.037463 0 0 1 55.868369 0l55.932364 56.380335a39.805413 39.805413 0 0 1 0 56.380335l-31.22997 31.485954a54.076485 54.076485 0 0 0-10.367326 61.627994l25.982311 66.811657c5.247659 20.990636 31.22997 36.733612 50.748702 36.733612h45.501042c25.982311 0 40.317379 20.990636 40.317379 40.637359h10.431322V421.404289a36.477629 36.477629 0 0 1-36.477629 43.261188z m-470.817397-274.030188c-106.61707 0-193.715408 87.866289-193.715408 195.3793S409.606656 581.329894 516.287721 581.329894c106.681066 0 193.779404-87.802293 193.779405-195.315305s-87.098339-195.3793-193.779405-195.3793z"  horiz-adv-x="1024" />

    
    <glyph glyph-name="switch" unicode="&#58929;" d="M588.8 554.666667c17.066667 0 34.133333-12.8 34.133333-34.133334 0-8.533333-4.266667-17.066667-8.533333-21.333333l-256-256c-12.8-12.8-34.133333-12.8-46.933333 0-12.8 12.8-12.8 34.133333 0 46.933333L512 490.666667H354.133333c-17.066667 0-34.133333 12.8-34.133333 34.133333s17.066667 29.866667 34.133333 29.866667h234.666667zM465.066667 192c-17.066667 0-34.133333 12.8-34.133334 34.133333 0 8.533333 4.266667 17.066667 8.533334 21.333334l256 256c12.8 12.8 34.133333 12.8 46.933333 0 12.8-12.8 12.8-34.133333 0-46.933334L541.866667 256h157.866666c17.066667 0 34.133333-12.8 34.133334-34.133333s-17.066667-29.866667-34.133334-29.866667h-234.666666z"  horiz-adv-x="1024" />

    
    <glyph glyph-name="keshiqingling" unicode="&#58930;" d="M830.171429 299.885714c95.085714 0 171.885714-76.8 171.885714-171.885714s-76.8-171.885714-171.885714-171.885714-171.885714 80.457143-171.885715 175.542857 76.8 168.228571 171.885715 168.228571zM749.714286 815.542857c18.285714 0 36.571429-7.314286 47.542857-21.942857l164.571428-193.828571c10.971429-10.971429 14.628571-25.6 14.628572-40.228572v-274.285714c-14.628571 14.628571-32.914286 29.257143-54.857143 40.228571V563.2c0 3.657143 0 3.657143-3.657143 7.314286l-164.571428 193.828571c0 3.657143-3.657143 3.657143-7.314286 3.657143H277.942857c-3.657143 0-3.657143 0-3.657143-3.657143L102.4 559.542857s-3.657143-3.657143-3.657143-7.314286V91.428571c0-25.6 21.942857-43.885714 43.885714-43.885714h486.4c7.314286-18.285714 18.285714-40.228571 32.914286-54.857143L146.285714-10.971429c-54.857143 0-102.4 43.885714-102.4 102.4V552.228571c0 14.628571 7.314286 29.257143 14.628572 40.228572l171.885714 197.485714c10.971429 10.971429 25.6 21.942857 43.885714 21.942857h475.428572z m76.8-566.857143c-14.628571 0-25.6-10.971429-25.6-25.6V120.685714c0-7.314286 3.657143-14.628571 7.314285-18.285714 3.657143-3.657143 10.971429-7.314286 18.285715-7.314286h98.742857c14.628571 0 29.257143 10.971429 29.257143 29.257143s-10.971429 29.257143-29.257143 29.257143h-69.485714v69.485714c0 10.971429-7.314286 21.942857-21.942858 25.6h-7.314285zM548.571429 621.714286c36.571429 0 65.828571-29.257143 65.828571-65.828572v-54.857143h54.857143c36.571429 0 65.828571-29.257143 65.828571-65.828571v-73.142857c0-36.571429-29.257143-65.828571-65.828571-65.828572h-54.857143v-54.857142c0-36.571429-29.257143-65.828571-65.828571-65.828572h-73.142858c-36.571429 0-65.828571 29.257143-65.828571 65.828572v54.857142H358.4c-36.571429 0-65.828571 29.257143-65.828571 65.828572v73.142857c0 36.571429 29.257143 65.828571 65.828571 65.828571h54.857143V555.885714c0 36.571429 29.257143 65.828571 65.828571 65.828572H548.571429zM548.571429 566.857143h-73.142858c-3.657143 0-7.314286-3.657143-7.314285-7.314286v-109.714286h-109.714286c-3.657143 0-7.314286-3.657143-7.314286-7.314285v-73.142857c0-3.657143 3.657143-7.314286 7.314286-7.314286h109.714286v-109.714286c0-3.657143 3.657143-7.314286 7.314285-7.314286h73.142858c3.657143 0 7.314286 3.657143 7.314285 7.314286v109.714286h109.714286c3.657143 0 7.314286 3.657143 7.314286 7.314286v73.142857c0 3.657143-3.657143 7.314286-7.314286 7.314285h-109.714286v109.714286c0 3.657143-3.657143 7.314286-7.314285 7.314286z"  horiz-adv-x="1024" />

    
    <glyph glyph-name="keshiyanshou" unicode="&#58931;" d="M830.171429 299.885714c95.085714 0 171.885714-76.8 171.885714-171.885714s-76.8-171.885714-171.885714-171.885714-171.885714 80.457143-171.885715 175.542857 76.8 168.228571 171.885715 168.228571zM310.857143 705.828571v-54.857142H223.085714c-3.657143 0-3.657143 0-3.657143-3.657143l-117.028571-160.914286s-3.657143-3.657143-3.657143-7.314286V91.428571c0-25.6 21.942857-43.885714 43.885714-43.885714h486.4c7.314286-21.942857 18.285714-40.228571 32.914286-54.857143L146.285714-10.971429c-54.857143 0-102.4 43.885714-102.4 102.4V479.085714c0 14.628571 7.314286 29.257143 14.628572 40.228572l117.028571 160.914285c10.971429 10.971429 25.6 21.942857 43.885714 21.942858h7.314286l84.114286 3.657142z m504.685714-669.257142l128 128-40.228571 40.228571-87.771429-87.771429-54.857143 54.857143-40.228571-40.228571 58.514286-58.514286 36.571428-36.571428zM614.4 822.857143c18.285714 0 32.914286-14.628571 36.571429-32.914286v-274.285714h62.171428c21.942857 0 36.571429-14.628571 36.571429-36.571429 0-7.314286 0-10.971429-3.657143-18.285714l-3.657143-3.657143-201.142857-266.971428c-10.971429-14.628571-36.571429-18.285714-51.2-7.314286-3.657143 0-3.657143 3.657143-3.657143 3.657143l-3.657143 3.657143L281.6 457.142857c-10.971429 14.628571-10.971429 36.571429 3.657143 47.542857l3.657143 3.657143 3.657143 3.657143c7.314286 3.657143 10.971429 3.657143 14.628571 3.657143H376.685714V786.285714c0 18.285714 14.628571 32.914286 32.914286 36.571429h204.8z m-21.942857-51.2h-164.571429v-307.2H343.771429l164.571428-219.428572 164.571429 219.428572h-80.457143V771.657143z m204.8-65.828572c18.285714 0 36.571429-7.314286 47.542857-21.942857l117.028571-157.257143c10.971429-10.971429 14.628571-25.6 14.628572-40.228571v-201.142857c-14.628571 14.628571-32.914286 29.257143-54.857143 40.228571v164.571429c0 3.657143 0 3.657143-3.657143 7.314286l-117.028571 157.257142c0 3.657143-3.657143 3.657143-7.314286 3.657143h-80.457143V705.828571h84.114286z"  horiz-adv-x="1024" />

    
    <glyph glyph-name="keshixiaohao" unicode="&#58932;" d="M830.171429 299.885714c95.085714 0 171.885714-76.8 171.885714-171.885714s-76.8-171.885714-171.885714-171.885714-171.885714 80.457143-171.885715 175.542857 76.8 168.228571 171.885715 168.228571zM310.857143 705.828571L266.971429 647.314286H223.085714c-3.657143 0-3.657143 0-3.657143-3.657143l-117.028571-160.914286s-3.657143-3.657143-3.657143-7.314286V91.428571c0-25.6 21.942857-43.885714 43.885714-43.885714h486.4c7.314286-21.942857 18.285714-40.228571 32.914286-54.857143L146.285714-10.971429c-54.857143 0-102.4 43.885714-102.4 102.4V479.085714c0 14.628571 7.314286 29.257143 14.628572 40.228572l117.028571 160.914285c10.971429 10.971429 25.6 21.942857 43.885714 21.942858h7.314286l84.114286 3.657142z m618.057143-552.228571H731.428571v-54.857143h197.485715v54.857143zM541.257143 808.228571l201.142857-266.971428c3.657143-7.314286 7.314286-14.628571 7.314286-21.942857 0-21.942857-14.628571-36.571429-36.571429-36.571429h-62.171428V241.371429l-10.971429-21.942858c-7.314286-7.314286-14.628571-10.971429-25.6-10.971428h-201.142857c-21.942857 0-36.571429 14.628571-36.571429 36.571428v234.057143H310.857143c-3.657143 0-10.971429 0-18.285714 3.657143l-3.657143 3.657143c-14.628571 10.971429-18.285714 36.571429-7.314286 51.2l201.142857 266.971429 7.314286 7.314285c14.628571 14.628571 36.571429 10.971429 51.2-3.657143zM512 753.371429l-164.571429-219.428572h84.114286v-270.628571h164.571429V533.942857h80.457143l-164.571429 219.428572z m285.257143-47.542858c18.285714 0 36.571429-7.314286 47.542857-21.942857l117.028571-157.257143c10.971429-10.971429 14.628571-25.6 14.628572-40.228571v-201.142857c-14.628571 14.628571-32.914286 29.257143-54.857143 40.228571v164.571429c0 3.657143 0 3.657143-3.657143 7.314286l-117.028571 157.257142c0 3.657143-3.657143 3.657143-7.314286 3.657143h-36.571429L713.142857 713.142857l84.114286-7.314286z"  horiz-adv-x="1024" />

    
    <glyph glyph-name="icon-test" unicode="&#58933;" d="M838.300444 274.005333v-66.121955l-0.130844-11.283911-326.397156-188.060445-3.191466 1.837511 0.859022 73.759289 328.860444 189.869511z m-463.792355 195.805867l67.370667-39.947378v-380.632178l-67.370667 39.947378V469.8112z m-94.313245 53.893689l67.367823-39.947378v-380.603733l-1.504711 0.864711-65.863112 39.054222V523.707733z m558.108445-140.794311v-24.795022l-0.620089-53.353245-329.636978-190.316089 0.910222 78.316089 329.344 190.151111zM189.633422 575.374222l63.610311-37.717333V157.496889l-28.2624 16.2816-39.105422 23.190755V573.206756l3.757511 2.164622z m648.4736-83.666489l-0.910222-78.316089-329.636978-190.316088 0.910222 78.318933 329.636978 190.313244zM323.208533 651.952356l329.636978-190.316089-68.278044-38.371556L255.439644 613.290667l41.076623 23.665777 26.695111 14.998756z m94.082845 54.587733l329.386666-190.171022-68.278044-38.371556L349.855289 667.687822l67.436089 38.855111z m94.409955 54.394311l326.599111-188.558222v-2.514489l-66.067911-37.128533-327.964444 189.348977 67.433244 38.855111zM511.772444 896l443.505778-255.570489v-511.340089l-443.505778-255.573333L68.266667 129.092267V640.426667L511.772444 896z m0-69.979022L128.898844 605.391644V164.124444l382.8736-220.632177 382.8736 220.632177V605.391644L511.772444 826.020978z"  horiz-adv-x="1024" />

    
    <glyph glyph-name="SPLIT" unicode="&#58934;" d="M896 526.628571h3.657143c32.914286-3.657143 58.514286-29.257143 58.514286-65.828571V128c0-21.942857-10.971429-43.885714-32.914286-54.857143l-288.914286-171.885714c-10.971429-7.314286-21.942857-7.314286-32.914286-7.314286-36.571429 0-65.828571 29.257143-65.828571 65.828572v332.8c0 21.942857 10.971429 43.885714 32.914286 54.857142l288.914285 171.885715c14.628571 3.657143 25.6 7.314286 36.571429 7.314285z m-811.885714-29.257142c18.285714 25.6 58.514286 36.571429 87.771428 18.285714l288.914286-171.885714c18.285714-10.971429 32.914286-32.914286 32.914286-54.857143v-332.8c0-10.971429-3.657143-21.942857-7.314286-32.914286-18.285714-29.257143-58.514286-40.228571-87.771429-21.942857L109.714286 73.142857c-25.6 7.314286-36.571429 29.257143-36.571429 54.857143v332.8c0 10.971429 3.657143 21.942857 7.314286 32.914286l3.657143 3.657143z m58.514285-29.257143c-3.657143 3.657143-7.314286 0-10.971428-3.657143V128c0-3.657143 0-3.657143 3.657143-7.314286l288.914285-171.885714c3.657143-3.657143 7.314286 0 10.971429 3.657143v336.457143c0 3.657143 0 3.657143-3.657143 7.314285l-288.914286 171.885715z m753.371429 0h-3.657143l-288.914286-171.885715c-3.657143 0-3.657143-3.657143-3.657142-7.314285v-332.8c0-3.657143 3.657143-7.314286 7.314285-7.314286h3.657143l288.914286 171.885714c3.657143 0 3.657143 3.657143 3.657143 7.314286v332.8c3.657143 3.657143 0 7.314286-7.314286 7.314286zM482.742857 841.142857c21.942857 10.971429 43.885714 10.971429 65.828572 0l288.914285-168.228571c32.914286-18.285714 40.228571-58.514286 25.6-87.771429-7.314286-10.971429-14.628571-18.285714-21.942857-21.942857l-292.571428-171.885714c-21.942857-10.971429-43.885714-10.971429-65.828572 0l-292.571428 171.885714c-32.914286 18.285714-43.885714 58.514286-25.6 87.771429 7.314286 10.971429 14.628571 18.285714 25.6 25.6l292.571428 164.571428z m36.571429-47.542857H512L215.771429 625.371429s-3.657143 0-3.657143-3.657143c-3.657143-3.657143 0-7.314286 3.657143-10.971429l292.571428-171.885714h7.314286l292.571428 171.885714s3.657143 0 3.657143 3.657143c3.657143 3.657143 0 7.314286-3.657143 10.971429l-288.914285 168.228571z"  horiz-adv-x="1024" />

    
    <glyph glyph-name="LOGO" unicode="&#58935;" d="M462.112821-101.74359c-28.882051 0-57.764103 7.876923-84.020513 21.005128L86.646154 84.676923c-52.512821 28.882051-86.646154 86.646154-86.646154 147.035898V559.917949c0 60.389744 34.133333 118.153846 86.646154 147.035897L378.092308 872.369231c52.512821 28.882051 115.528205 28.882051 168.041025 0l291.446154-165.415385c52.512821-28.882051 86.646154-86.646154 86.646154-147.035897v-328.205128c0-60.389744-34.133333-118.153846-86.646154-147.035898l-291.446154-165.415385c-26.25641-13.128205-55.138462-21.005128-84.020512-21.005128z m0 945.230769c-21.005128 0-39.384615-5.251282-57.764103-15.753846L112.902564 662.317949C76.14359 641.312821 52.512821 601.928205 52.512821 559.917949v-328.205128c0-42.010256 23.630769-81.394872 60.389743-102.4l291.446154-165.415385c36.758974-21.005128 81.394872-21.005128 115.528205 0l291.446154 165.415385c36.758974 21.005128 60.389744 60.389744 60.389744 102.4V559.917949c0 42.010256-23.630769 81.394872-60.389744 102.4L519.876923 827.733333c-18.379487 10.502564-36.758974 15.753846-57.764102 15.753846zM635.405128 368.246154c-15.753846 7.876923-391.220513 223.179487-451.610256 262.564102-23.630769 13.128205-52.512821 18.379487-78.769231 13.128206-10.502564-2.625641-26.25641-7.876923-36.758974-23.63077L23.630769 649.189744c15.753846 23.630769 39.384615 39.384615 70.892308 47.261538 39.384615 7.876923 81.394872 0 115.528205-21.005128 60.389744-39.384615 446.358974-257.312821 448.984615-259.938462l-23.630769-47.261538zM753.558974 441.764103c-15.753846 7.876923-383.34359 207.425641-446.358974 244.184615-42.010256 26.25641-102.4 28.882051-141.784615 7.876923L139.158974 738.461538c55.138462 31.507692 136.533333 28.882051 196.923077-5.251282 60.389744-36.758974 438.482051-241.558974 443.733334-244.184615l-26.256411-47.261538zM853.333333 502.153846c-15.753846 7.876923-364.964103 207.425641-427.979487 246.810257-39.384615 26.25641-105.025641 26.25641-147.035897 2.625641l-26.256411 44.635897c57.764103 34.133333 147.035897 31.507692 202.174359-5.251282 60.389744-39.384615 420.102564-244.184615 425.353847-244.184615l-26.256411-44.635898zM378.092308 192.328205l-26.256411 44.635898c15.753846 10.502564 396.471795 233.682051 459.48718 267.815384 42.010256 21.005128 65.641026 70.892308 49.887179 102.4l47.261539 23.630769c31.507692-63.015385-10.502564-141.784615-70.892308-173.292307-65.641026-31.507692-456.861538-262.564103-459.487179-265.189744zM370.215385 61.046154l-26.256411 44.635897c15.753846 10.502564 385.969231 228.430769 451.610257 262.564103 44.635897 23.630769 76.14359 73.517949 76.14359 120.779487h52.51282c2.625641-65.641026-42.010256-136.533333-105.025641-168.041026-63.015385-31.507692-443.733333-257.312821-448.984615-259.938461zM383.34359-49.230769l-26.256411 44.635897c15.753846 7.876923 372.841026 210.051282 435.856411 244.184616 42.010256 21.005128 76.14359 78.769231 76.143589 126.030769h52.512821c0-68.266667-47.261538-141.784615-105.025641-173.292308-63.015385-31.507692-430.605128-238.933333-433.230769-241.558974zM446.358974-99.117949c-63.015385 2.625641-115.528205 73.517949-112.902564 149.661539 2.625641 70.892308 0 509.374359 0 514.625641h52.512821c0-18.379487 2.625641-443.733333 0-517.251282-2.625641-47.261538 28.882051-91.897436 63.015384-94.523077l-2.625641-52.512821zM320.328205-46.605128c-52.512821 31.507692-89.271795 102.4-86.646154 170.666666 2.625641 70.892308 0 485.74359 0 488.369231h52.512821c0-18.379487 2.625641-420.102564 0-490.994872-2.625641-49.887179 23.630769-102.4 60.389743-123.405128l-26.25641-44.635897zM210.051282 16.410256c-57.764103 34.133333-99.774359 107.651282-99.774359 175.917949v472.615385h52.512821v-472.615385c0-49.887179 31.507692-105.025641 73.517948-128.65641l-26.25641-47.261539zM1908.841026 407.236923h-367.589744v52.512821h325.579487c23.630769 0 42.010256-15.753846 42.010257-34.133334v-18.379487zM1486.112821 795.831795h504.123076v-65.641026H1486.112821zM1472.984615 638.293333h527.753847v-65.641025H1472.984615zM1541.251282 365.226667H1942.974359v-65.641026H1541.251282zM1493.989744 559.524103h65.641025v-275.692308h-65.641025zM1643.651282 724.939487h65.641026v-141.784615h-65.641026zM1782.810256 724.939487h65.641026v-141.784615h-65.641026zM1995.487179 283.831795h-65.641025v162.789743c0 26.25641-21.005128 47.261538-47.261539 47.261539h-341.333333v65.641026h341.333333c63.015385 0 112.902564-49.887179 112.902564-112.902565v-162.789743zM1449.353846 338.970256h-65.641025v225.805129c0 5.251282-2.625641 7.876923-7.876924 7.876923H1312.820513v68.266666h60.389743c42.010256 0 73.517949-34.133333 73.517949-73.517948v-228.43077zM1320.277333 765.243077l50.438564 41.984 78.953026-94.838154-50.46482-42.010256zM1588.512821 835.21641H1654.153846v-91.897436h-65.641025zM1507.249231 695.794872l60.757333 24.812307 36.758974-89.928205-60.783589-24.838564zM1832.697436 835.21641h65.641026v-91.897436h-65.641026zM1894.242462 630.337641l36.732717 89.928205 60.757334-24.812308-36.732718-89.954461zM1335.059692 362.12841l150.764308 21.530257 9.268513-64.984616-150.738051-21.530256zM2152.369231 818.018462h320.328205v-52.512821h-320.328205zM2160.246154 749.751795h304.574359v-52.512821h-304.574359zM2152.369231 681.485128h320.328205v-52.51282h-320.328205zM2278.4 836.397949h65.641026v-231.056411h-65.641026zM2485.825641 818.018462h309.825641v-52.512821h-309.825641zM2488.451282 749.751795h296.697436v-52.512821h-296.697436zM2483.2 681.485128h309.825641v-52.51282h-309.825641zM2611.85641 836.397949h65.641026v-231.056411h-65.641026zM2798.276923 424.172308h-645.907692v52.51282h593.394872v36.758975c0 26.25641-23.630769 47.261538-52.512821 47.261538h-540.882051v52.512821h538.25641c57.764103 0 105.025641-44.635897 105.025641-99.774359v-89.271795zM2727.384615 497.690256h-567.138461v44.635898h525.128205c23.630769 0 42.010256-13.128205 42.010256-28.882051v-15.753847zM2291.528205 408.418462c0-15.753846 5.251282-26.25641 18.379487-36.758975 13.128205-13.128205 31.507692-21.005128 52.512821-21.005128h372.841025l7.876924-68.266667-380.717949 2.625641c-36.758974 0-73.517949 15.753846-99.774359 39.384616-23.630769 23.630769-36.758974 49.887179-36.758975 84.020513M2732.635897 361.156923h-375.466666c-49.887179 5.251282-55.138462 47.261538-55.138462 47.261539l425.353846-2.625641 5.251282-44.635898zM2218.010256 285.013333h-65.641025v123.405129h65.641025zM2808.779487 282.387692h-49.887179l-15.753846 123.405129h49.887179zM3601.197949 301.896205h-656.410257v412.225641c0 63.015385 49.887179 112.902564 112.902564 112.902564h543.507693v-65.641025h-543.507693c-26.25641 0-47.261538-21.005128-47.261538-47.261539v-346.584615h590.769231v-65.641026zM3026.182564 601.219282h575.015385v-65.641026h-575.015385zM3136.459487 708.870564h464.738462v-65.641026h-464.738462zM3293.997949 669.485949h65.641025v-202.174359h-65.641025zM3034.059487 614.347487h70.892308l105.025641 131.282051h-73.517949zM3026.182564 380.665436v65.641026l301.948718 57.764102v-68.266667zM3595.946667 380.665436v68.266667l-301.948718 55.138461v-65.641026zM4126.956308 833.877333h65.641025v-91.897436h-65.641025zM3741.459692 628.552205l17.77559 63.172923 116.263385-32.741743-17.801846-63.172923zM3741.827282 484.220718l124.980513 40.198564 20.086154-62.490256-124.980513-40.172308zM3835.510154 282.492718l-57.764103 31.507692 28.882052 55.138462c18.379487 36.758974 28.882051 76.14359 28.882051 118.153846v199.548718c0 65.641026 55.138462 112.902564 133.907692 112.902564h435.85641v-65.641026h-435.85641c-42.010256 0-68.266667-18.379487-68.266667-47.261538v-199.548718c0-52.512821-13.128205-102.4-36.758974-149.661539l-28.882051-55.138461zM4045.561436 290.369641v65.641026h126.030769c7.876923 0 7.876923 7.876923 7.876923 7.876923v89.271795c0 60.389744 31.507692 115.528205 81.394872 144.410256l5.251282 2.625641 47.261539 21.005128h-357.08718v65.641026h451.610256v-97.148718l-112.902564-47.261539c-28.882051-18.379487-49.887179-52.512821-49.887179-89.271794v-89.271795c0-36.758974-28.882051-73.517949-73.517949-73.517949h-126.030769zM1367.958974-70.235897v157.538461H1496.615385c10.502564 0 13.128205-5.251282 13.128205-15.753846s-5.251282-15.753846-13.128205-15.753846h-99.774359v-47.261539H1496.615385c36.758974 0 55.138462 21.005128 55.138461 63.015385S1533.374359 134.564103 1496.615385 134.564103h-168.041026v-204.8h39.384615z m383.34359 0c36.758974 0 55.138462 21.005128 55.138462 63.015384V134.564103h-42.010257v-141.784616c0-10.502564-5.251282-15.753846-13.128205-15.753846h-112.902564c-10.502564 0-13.128205 5.251282-13.128205 15.753846V134.564103h-42.010257v-141.784616c0-42.010256 18.379487-63.015385 55.138462-63.015384h112.902564z m126.030769 0v78.76923h141.784616v-78.76923h42.010256V134.564103h-42.010256v-78.769231h-141.784616v78.769231h-42.010256v-204.8h42.010256z m380.717949 0c36.758974 0 55.138462 21.005128 55.138462 63.015384V134.564103h-42.010257v-141.784616c0-10.502564-5.251282-15.753846-13.128205-15.753846h-112.902564c-10.502564 0-13.128205 5.251282-13.128205 15.753846V134.564103h-42.010257v-141.784616c0-42.010256 18.379487-63.015385 55.138462-63.015384H2258.051282z m126.030769 0V134.564103h-42.010256v-204.8h42.010256z m141.784616 0v141.784615c0 10.502564 5.251282 15.753846 13.128205 15.753846h42.010256c10.502564 0 13.128205-5.251282 13.128205-15.753846v-141.784615h42.010257v141.784615c0 10.502564 5.251282 15.753846 13.128205 15.753846h42.010256c10.502564 0 13.128205-5.251282 13.128205-15.753846v-141.784615h42.010257v141.784615c0 42.010256-18.379487 63.015385-55.138462 63.015385h-42.010256c-15.753846 0-26.25641-2.625641-34.133333-10.502565-7.876923 5.251282-21.005128 10.502564-34.133334 10.502565h-42.010256c-36.758974 0-55.138462-21.005128-55.138462-63.015385v-141.784615h42.010257z m480.492307 0V-22.974359h-168.041025c-10.502564 0-13.128205 5.251282-13.128205 15.753846v78.769231c0 10.502564 5.251282 15.753846 13.128205 15.753846h168.041025V134.564103h-168.041025c-36.758974 0-55.138462-21.005128-55.138462-63.015385v-78.769231c0-42.010256 18.379487-63.015385 55.138462-63.015384h168.041025z m-57.764102 78.76923V55.794872h-99.774359v-47.261539h99.774359z m254.687179-78.76923c36.758974 0 55.138462 21.005128 55.138462 63.015384v78.769231c0 42.010256-18.379487 63.015385-55.138462 63.015385h-168.041025v-47.261539h168.041025c10.502564 0 13.128205-5.251282 13.128205-15.753846v-78.769231c0-10.502564-5.251282-15.753846-13.128205-15.753846h-126.030769v78.769231h-42.010256v-126.030769h168.041025z m217.928205 0v157.538461h91.897436V134.564103h-225.805128v-47.261539h91.897436v-157.538461h42.010256z m346.584616 0V-22.974359h-168.041026c-10.502564 0-13.128205 5.251282-13.128205 15.753846v78.769231c0 10.502564 5.251282 15.753846 13.128205 15.753846h168.041026V134.564103h-168.041026c-36.758974 0-55.138462-21.005128-55.138461-63.015385v-78.769231c0-42.010256 18.379487-63.015385 55.138461-63.015384h168.041026z m-55.138462 78.76923V55.794872h-99.774359v-47.261539h99.774359z m309.825641-78.76923V-22.974359h-168.041025c-10.502564 0-13.128205 5.251282-13.128205 15.753846v78.769231c0 10.502564 5.251282 15.753846 13.128205 15.753846h168.041025V134.564103h-168.041025c-36.758974 0-55.138462-21.005128-55.138462-63.015385v-78.769231c0-42.010256 18.379487-63.015385 55.138462-63.015384h168.041025z m70.892308 0v78.76923h141.784615v-78.76923h42.010257V134.564103h-42.010257v-78.769231h-141.784615v78.769231h-42.010256v-204.8h42.010256z m506.748718 0V-22.974359h-168.041026c-10.502564 0-13.128205 5.251282-13.128205 15.753846v78.769231c0 10.502564 5.251282 15.753846 13.128205 15.753846h168.041026V134.564103h-168.041026c-36.758974 0-55.138462-21.005128-55.138461-63.015385v-78.769231c0-42.010256 18.379487-63.015385 55.138461-63.015384h168.041026z m199.548718 0c36.758974 0 55.138462 21.005128 55.138461 63.015384v78.769231c0 42.010256-18.379487 63.015385-55.138461 63.015385h-112.902564c-36.758974 0-55.138462-21.005128-55.138462-63.015385v-78.769231c0-42.010256 18.379487-63.015385 55.138462-63.015384h112.902564z m0 47.261538h-112.902564c-10.502564 0-13.128205 5.251282-13.128205 15.753846v78.769231c0 10.502564 5.251282 15.753846 13.128205 15.753846h112.902564c10.502564 0 13.128205-5.251282 13.128205-15.753846v-78.769231c0-10.502564-5.251282-15.753846-13.128205-15.753846z m126.030769-47.261538V-22.974359H4883.692308v-47.261538h42.010256z m70.892308-31.507693v78.769231h-42.010257v-78.769231h42.010257z m252.061538 31.507693V-22.974359h-168.041025c-10.502564 0-13.128205 5.251282-13.128206 15.753846V134.564103h-42.010256v-141.784616c0-42.010256 18.379487-63.015385 55.138462-63.015384h168.041025z m162.789744 0v157.538461h91.897436V134.564103H5277.538462v-47.261539h91.897435v-157.538461h42.010257z m288.820513 0c36.758974 0 55.138462 21.005128 55.138461 63.015384v78.769231c0 42.010256-18.379487 63.015385-55.138461 63.015385h-168.041026v-47.261539h168.041026c10.502564 0 13.128205-5.251282 13.128205-15.753846v-78.769231c0-10.502564-5.251282-15.753846-13.128205-15.753846h-126.03077v78.769231h-42.010256v-126.030769h168.041026z m128.65641 0V-22.974359h-42.010256v-47.261538h42.010256z"  horiz-adv-x="5828" />

    
    <glyph glyph-name="Centerstock" unicode="&#58938;" d="M67.474-52.553H963.11a27.611 27.611 0 1 1 0 55.223H67.474a27.611 27.611 0 0 1 0-55.223zM54.491 360.082v-365.714h55.223V360.082zM344.65 506.368v-512h55.223v512z m482.743 146.286v-658.286h55.223V652.654zM404.736 553.582L20.846 382.64700000000005A27.611 27.611 0 1 1 43.3 332.178l383.89 170.935a27.611 27.611 0 0 1-22.455 50.469zM598.821 847.835L252.855 587.63a27.575 27.575 0 1 1 33.243-44.069l345.966 260.17a27.575 27.575 0 1 1-33.28 44.104zM642.121 846.19l352.183-266.35a27.21 27.21 0 0 0 5.34-38.107 27.136 27.136 0 0 0-38.035-5.303L609.426 802.78a27.21 27.21 0 0 0-5.34 38.107 27.136 27.136 0 0 0 38.035 5.303z"  horiz-adv-x="1024" />

    
    <glyph glyph-name="Inventory" unicode="&#58939;" d="M398.628571 559.542857c14.628571 7.314286 29.257143 0 36.571429-14.628571 7.314286-14.628571 0-29.257143-14.628571-36.571429l-25.6-10.971428v-490.057143h113.371428c21.942857-21.942857 51.2-40.228571 80.457143-54.857143H62.171429c-14.628571 0-25.6 14.628571-25.6 29.257143 0 10.971429 7.314286 18.285714 14.628571 25.6v336.457143l-10.971429-3.657143c-10.971429-7.314286-29.257143 0-32.914285 10.971428v3.657143c-7.314286 14.628571 0 29.257143 14.628571 36.571429l376.685714 168.228571z m-58.514285-87.771428l-237.714286-106.057143h3.657143v-358.4h234.057143V471.771429z m256 380.342857c7.314286 7.314286 14.628571 7.314286 25.6 7.314285 3.657143 0 10.971429 0 14.628571-3.657142l3.657143-3.657143 351.085714-266.971429c10.971429-7.314286 14.628571-25.6 3.657143-36.571428-7.314286-10.971429-25.6-14.628571-36.571428-3.657143L877.714286 603.4285709999999v-142.628571c-18.285714 10.971429-36.571429 21.942857-54.857143 29.257143V643.657143l-208.457143 157.257143-332.8-252.342857c-10.971429-7.314286-25.6-7.314286-36.571429 3.657142l-3.657142 3.657143v3.657143c-7.314286 10.971429-3.657143 25.6 7.314285 36.571429l347.428572 256zM713.142857 457.142857c131.657143 0 237.714286-106.057143 237.714286-237.714286 0-62.171429-21.942857-117.028571-62.171429-160.914285 3.657143 0 10.971429-3.657143 14.628572-7.314286l87.771428-87.771429c10.971429-10.971429 10.971429-29.257143 0-43.885714-10.971429-10.971429-29.257143-10.971429-43.885714 0l-87.771429 87.771429c-3.657143 3.657143-7.314286 10.971429-7.314285 18.285714-40.228571-29.257143-87.771429-43.885714-138.971429-43.885714-131.657143 0-237.714286 106.057143-237.714286 237.714285s106.057143 237.714286 237.714286 237.714286z m0-62.171428c-98.742857 0-179.2-80.457143-179.2-179.2s80.457143-179.2 179.2-179.2c47.542857 0 91.428571 18.285714 124.342857 51.2 32.914286 32.914286 51.2 76.8 51.2 124.342857 3.657143 106.057143-76.8 182.857143-175.542857 182.857143z"  horiz-adv-x="1024" />

    
    <glyph glyph-name="Basedata" unicode="&#58940;" d="M877.714286 778.971429c36.571429 0 65.828571-29.257143 65.828571-65.828572v-512c0-36.571429-29.257143-65.828571-65.828571-65.828571h-223.085715c51.2-29.257143 87.771429-73.142857 102.4-138.971429 3.657143-18.285714-7.314286-36.571429-25.6-40.228571H299.885714c-18.285714 0-36.571429 14.628571-36.571428 36.571428v7.314286c14.628571 65.828571 51.2 113.371429 102.4 138.971429H142.628571c-36.571429 0-65.828571 29.257143-65.828571 65.828571V713.142857C80.457143 749.714286 109.714286 778.971429 146.285714 778.971429h731.428572zM512 113.37142900000003c-95.085714 0-157.257143-32.914286-182.857143-95.085715v-7.314285h365.714286l-3.657143 7.314285c-25.6 62.171429-80.457143 95.085714-168.228571 95.085715H512zM877.714286 720.457143H146.285714c-3.657143 0-7.314286-3.657143-7.314285-7.314286v-512c0-3.657143 3.657143-7.314286 7.314285-7.314286h731.428572c3.657143 0 7.314286 3.657143 7.314285 7.314286V713.142857c0 3.657143-3.657143 7.314286-7.314285 7.314286zM387.657143 347.42857100000003c14.628571 0 29.257143-10.971429 29.257143-29.257142v-54.857143c0-14.628571-10.971429-29.257143-29.257143-29.257143s-29.257143 10.971429-29.257143 29.257143v54.857143c0 18.285714 10.971429 29.257143 29.257143 29.257142z m-128 73.142858c14.628571 0 29.257143-10.971429 29.257143-29.257143v-128c0-14.628571-10.971429-29.257143-29.257143-29.257143s-29.257143 10.971429-29.257143 29.257143v128c0 18.285714 10.971429 29.257143 29.257143 29.257143z m256 73.142857c14.628571 0 29.257143-10.971429 29.257143-29.257143v-201.142857c0-14.628571-10.971429-29.257143-29.257143-29.257143s-29.257143 10.971429-29.257143 29.257143v201.142857c0 18.285714 14.628571 29.257143 29.257143 29.257143z m128 109.714285c14.628571 0 29.257143-10.971429 29.257143-29.257142v-310.857143c0-14.628571-10.971429-29.257143-29.257143-29.257143s-29.257143 10.971429-29.257143 29.257143V574.171429c0 18.285714 14.628571 29.257143 29.257143 29.257142z m128-146.285714c14.628571 0 29.257143-10.971429 29.257143-29.257143v-164.571428c0-14.628571-10.971429-29.257143-29.257143-29.257143s-29.257143 10.971429-29.257143 29.257143v164.571428c0 18.285714 14.628571 29.257143 29.257143 29.257143z"  horiz-adv-x="1024" />

    
    <glyph glyph-name="Calculator" unicode="&#58941;" d="M870.4 822.857143c36.571429 0 65.828571-29.257143 65.828571-65.828572v-768c0-36.571429-29.257143-65.828571-65.828571-65.828571h-694.857143c-36.571429 0-65.828571 29.257143-65.828571 65.828571v768C109.714286 793.6 138.971429 822.857143 175.542857 822.857143h694.857143z m0-54.857143h-694.857143c-3.657143 0-7.314286-3.657143-7.314286-7.314286v-768c0-3.657143 3.657143-7.314286 7.314286-7.314285h694.857143c3.657143 0 7.314286 3.657143 7.314286 7.314285v768c0 3.657143-3.657143 7.314286-7.314286 7.314286z m-475.428571-533.942857v-160.914286H234.057143v160.914286h160.914286z m204.8 0v-160.914286H438.857143v160.914286h160.914286z m204.8 0v-160.914286h-160.914286v160.914286H804.571429zM340.114286 186.51428599999997H281.6V128h58.514286v58.514286z m208.457143 0h-58.514286V128H548.571429v58.514286z m204.8 0H694.857143V128h58.514286v58.514286z m-358.4 256v-160.914286H234.057143v160.914286h160.914286z m204.8 0v-160.914286H438.857143v160.914286h160.914286z m204.8 0v-160.914286h-160.914286v160.914286H804.571429zM340.114286 387.657143H281.6v-58.514286h58.514286v58.514286z m208.457143 0h-58.514286v-58.514286H548.571429v58.514286z m204.8 0H694.857143v-58.514286h58.514286v58.514286z m47.542857 303.542857v-201.142857H234.057143V691.2h566.857143z m-58.514286-58.514286H285.257143v-91.428571h457.142857V632.685714z"  horiz-adv-x="1024" />

    
    <glyph glyph-name="System" unicode="&#58943;" d="M629.028571 859.428571l14.628572-157.257142 120.685714 102.4 168.228572-168.228572-102.4-120.685714 157.257142-14.628572v-237.714285l-157.257142-14.628572 102.4-120.685714-168.228572-168.228571-120.685714 102.4-14.628572-153.6h-237.714285l-14.628572 157.257142L256-36.571428999999966l-168.228571 168.228572 102.4 120.685714-153.6 10.971429v237.714285l157.257142 14.628572-102.4 120.685714 168.228572 168.228572 120.685714-102.4 14.628572 157.257142h234.057142z m-47.542857-54.857142h-135.314285L438.857143 698.514286l-91.428572-36.571429-84.114285 65.828572-95.085715-95.085715 69.485715-80.457143-36.571429-91.428571-106.057143-7.314286v-135.314285l106.057143-7.314286 36.571429-91.428572-69.485715-80.457142 95.085715-95.085715 80.457143 69.485715 91.428571-36.571429 7.314286-106.057143h135.314285l7.314286 106.057143 91.428572 36.571429 80.457142-69.485715 95.085715 95.085715-69.485715 80.457142 36.571429 91.428572 106.057143 7.314286v135.314285l-106.057143 7.314286-36.571429 91.428571 69.485715 80.457143-95.085715 95.085715-80.457142-69.485715-91.428572 36.571429-3.657143 109.714286zM512 596.114286c117.028571 0 212.114286-95.085714 212.114286-212.114286s-95.085714-212.114286-212.114286-212.114286c-14.628571 0-29.257143 10.971429-29.257143 29.257143s10.971429 29.257143 29.257143 29.257143c84.114286 0 153.6 69.485714 153.6 153.6S596.114286 537.6 512 537.6 358.4 468.114286 358.4 384c0-32.914286 7.314286-54.857143 14.628571-73.142857l3.657143-3.657143 3.657143-3.657143c0-3.657143 7.314286-7.314286 7.314286-7.314286 7.314286-10.971429 7.314286-29.257143-7.314286-40.228571-10.971429-7.314286-29.257143-7.314286-40.228571 7.314286l-7.314286 10.971428s-3.657143 3.657143-7.314286 10.971429c-14.628571 25.6-25.6 58.514286-25.6 98.742857 0 117.028571 95.085714 212.114286 212.114286 212.114286z"  horiz-adv-x="1024" />

    
    <glyph glyph-name="Department" unicode="&#58944;" d="M866.742857 47.542857000000026c0-54.857143-40.228571-98.742857-95.085714-98.742857H256c-54.857143 0-98.742857 40.228571-98.742857 95.085714v263.314286c0 14.628571 10.971429 29.257143 29.257143 29.257143 14.628571 0 25.6-10.971429 25.6-25.6v-259.657143c0-21.942857 18.285714-43.885714 40.228571-43.885714H768c21.942857 0 43.885714 18.285714 43.885714 40.228571v259.657143c0 14.628571 10.971429 29.257143 29.257143 29.257143 14.628571 0 25.6-10.971429 25.6-25.6V47.542857000000026zM329.142857 387.657143h369.371429c14.628571 0 29.257143-10.971429 29.257143-29.257143s-10.971429-29.257143-29.257143-29.257143H329.142857c-14.628571 0-29.257143 10.971429-29.257143 29.257143s14.628571 29.257143 29.257143 29.257143z m182.857143 182.857143c14.628571 0 29.257143-10.971429 29.257143-29.257143v-369.371429c0-14.628571-10.971429-29.257143-29.257143-29.257143s-29.257143 10.971429-29.257143 29.257143V544.914286c3.657143 14.628571 14.628571 25.6 29.257143 25.6z m62.171429 234.057143l3.657142-3.657143 321.828572-281.6H987.428571c14.628571 0 25.6-10.971429 25.6-25.6v-3.657143c0-14.628571-10.971429-25.6-25.6-25.6h-113.371428l-336.457143 296.228571c-14.628571 14.628571-40.228571 14.628571-54.857143 3.657143l-3.657143-3.657143L146.285714 460.8H36.571429c-14.628571 0-29.257143 10.971429-29.257143 29.257143 0 14.628571 10.971429 25.6 25.6 25.6h91.428571l318.171429 281.6c40.228571 36.571429 91.428571 36.571429 131.657143 7.314286z"  horiz-adv-x="1024" />

    
    <glyph glyph-name="Summary" unicode="&#58945;" d="M464.457143 811.885714c212.114286 0 387.657143-171.885714 387.657143-387.657143 0-91.428571-32.914286-179.2-91.428572-248.685714l186.514286-186.514286c10.971429-10.971429 10.971429-32.914286 0-43.885714-10.971429-10.971429-29.257143-10.971429-40.228571-3.657143l-7.314286 3.657143-186.514286 186.514286c-69.485714-58.514286-157.257143-91.428571-248.685714-91.428572-212.114286 0-387.657143 171.885714-387.657143 387.657143C76.8 640 248.685714 811.885714 464.457143 811.885714z m0-62.171428c-179.2 0-321.828571-146.285714-321.828572-321.828572 0-179.2 146.285714-321.828571 321.828572-321.828571 87.771429 0 168.228571 32.914286 230.4 95.085714 62.171429 62.171429 95.085714 142.628571 95.085714 230.4C786.285714 603.4285709999999 640 749.714286 464.457143 749.714286z m219.428571-259.657143c14.628571 0 29.257143-10.971429 29.257143-29.257143 0-76.8-29.257143-146.285714-84.114286-201.142857-54.857143-54.857143-124.342857-84.114286-201.142857-84.114286-14.628571 0-29.257143 10.971429-29.257143 29.257143s10.971429 29.257143 29.257143 29.257143c62.171429 0 117.028571 25.6 160.914286 65.828571 43.885714 43.885714 65.828571 102.4 65.828571 160.914286 0 18.285714 10.971429 29.257143 29.257143 29.257143z"  horiz-adv-x="1024" />

    
    <glyph glyph-name="Dashboard" unicode="&#58946;" d="M512 778.971429c259.657143 0 468.114286-208.457143 468.114286-468.114286 0-102.4-32.914286-201.142857-95.085715-281.6l-7.314285-10.971429H146.285714l-7.314285 10.971429c-62.171429 80.457143-95.085714 179.2-95.085715 281.6C43.885714 570.5142860000001 252.342857 778.971429 512 778.971429z m0-58.514286C285.257143 720.457143 102.4 537.6 102.4 310.85714299999995c0-80.457143 21.942857-157.257143 65.828571-223.085714l7.314286-10.971429h672.914286l7.314286 10.971429c40.228571 62.171429 62.171429 135.314286 65.828571 208.457142V310.85714299999995c0 226.742857-182.857143 409.6-409.6 409.6zM680.228571 603.4285709999999l-109.714285-263.314285c7.314286-14.628571 14.628571-29.257143 14.628571-47.542857 0-51.2-40.228571-91.428571-91.428571-91.428572S402.285714 241.37142900000003 402.285714 292.57142899999997s40.228571 91.428571 91.428572 91.428571h3.657143l182.857142 219.428571z m-186.514285-274.285714c-21.942857 0-36.571429-14.628571-36.571429-36.571428s14.628571-36.571429 36.571429-36.571429 36.571429 14.628571 36.571428 36.571429-14.628571 36.571429-36.571428 36.571428z"  horiz-adv-x="1024" />

    
    <glyph glyph-name="CONTRAST" unicode="&#58947;" d="M512 852.114286C768 852.114286 980.114286 640 980.114286 384c0-153.6-76.8-292.571429-193.828572-376.685714v-3.657143h-7.314285c-76.8-51.2-168.228571-84.114286-266.971429-84.114286C256-84.114286 43.885714 128 43.885714 384S256 852.114286 512 852.114286z m-29.257143-58.514286C270.628571 778.971429 102.4 603.428571 102.4 384s168.228571-394.971429 384-409.6V793.6z m58.514286-819.2c43.885714 3.657143 84.114286 10.971429 124.342857 29.257143h-124.342857v-29.257143z m0 84.114286h223.085714c18.285714 14.628571 36.571429 29.257143 51.2 47.542857h-274.285714v-47.542857z m0 102.4h318.171428c10.971429 14.628571 18.285714 29.257143 25.6 47.542857h-343.771428v-47.542857z m0 102.4h365.714286c3.657143 14.628571 7.314286 32.914286 10.971428 47.542857H541.257143v-47.542857z m0 102.4h384V384v25.6H541.257143v-43.885714z m0 102.4h376.685714c-3.657143 14.628571-7.314286 32.914286-10.971428 47.542857h-362.057143v-47.542857z m0 102.4h340.114286c-7.314286 14.628571-18.285714 32.914286-29.257143 47.542857h-310.857143v-47.542857z m0 102.4h266.971428c-18.285714 18.285714-36.571429 32.914286-54.857142 47.542857h-212.114286v-47.542857z m0 120.685714v-21.942857h106.057143c-36.571429 14.628571-73.142857 21.942857-106.057143 21.942857z"  horiz-adv-x="1024" />

    
    <glyph glyph-name="hp_cgjh_djs" unicode="&#58948;" d="M512 896c282.766222 0 512-229.233778 512-512s-229.233778-512-512-512S0 101.23377800000003 0 384 229.233778 896 512 896z m0-34.910815C248.50963 861.089185 34.910815 647.49037 34.910815 384S248.50963-93.08918500000004 512-93.08918500000004 989.089185 120.50963000000002 989.089185 384 775.49037 861.089185 512 861.089185z m0-93.089185c212.081778 0 384-171.918222 384-384S724.081778 0 512 0 128 171.91822200000001 128 384 299.918222 768 512 768zM758.518519 270.222222H393.481481v-85.333333H758.518519v85.333333z m-407.703704 0h-84.242963v-85.333333H350.814815v85.333333z m407.703704 161.185185H393.481481v-85.333333H758.518519v85.333333z m-407.703704 0h-84.242963v-85.333333H350.814815v85.333333z m407.703704 161.185186H393.481481v-85.333334H758.518519v85.333334z m-407.703704 0h-84.242963v-85.333334H350.814815v85.333334z"  horiz-adv-x="1024" />

    
    <glyph glyph-name="hp_djh_dscjhd" unicode="&#58949;" d="M512 896c282.766222 0 512-229.233778 512-512s-229.233778-512-512-512S0 101.23377800000003 0 384 229.233778 896 512 896z m0-34.910815C248.50963 861.089185 34.910815 647.49037 34.910815 384S248.50963-93.08918500000004 512-93.08918500000004 989.089185 120.50963000000002 989.089185 384 775.49037 861.089185 512 861.089185z m0-93.089185c212.081778 0 384-171.918222 384-384S724.081778 0 512 0 128 171.91822200000001 128 384 299.918222 768 512 768z m-4.740741-70.72237l-275.418074-159.004445v-318.027852L507.259259 61.250369999999975l275.418074 159.004445V538.273185L507.259259 697.268148zM298.202074 462.203259L474.074074 362.657185v-205.615407L298.211556 258.57896300000004l-0.009482 203.624296z m418.085926-0.009481l0.009481-203.614815L540.444444 157.060741V362.66666699999996l175.843556 99.527111zM682.666667 402.962963l-85.333334-52.15763v-47.407407L682.666667 355.555556v47.407407z m-62.008889 152.215704l61.961481-35.783111L507.259259 420.133926l-62.587259 35.432296L620.657778 555.178667zM507.259259 620.6482960000001l46.705778-26.965333-176.374518-99.84 0.246518-0.44563-45.956741 26.007704L507.259259 620.6482960000001z"  horiz-adv-x="1024" />

    
    <glyph glyph-name="hp_jgd_djg" unicode="&#58950;" d="M512 896c282.766222 0 512-229.233778 512-512s-229.233778-512-512-512S0 101.23377800000003 0 384 229.233778 896 512 896z m0-34.910815C248.50963 861.089185 34.910815 647.49037 34.910815 384S248.50963-93.08918500000004 512-93.08918500000004 989.089185 120.50963000000002 989.089185 384 775.49037 861.089185 512 861.089185z m0-93.089185c212.081778 0 384-171.918222 384-384S724.081778 0 512 0 128 171.91822200000001 128 384 299.918222 768 512 768z m58.17837-116.366222a69.831111 69.831111 0 0 1-69.489777-63.004445l-67.754667-13.89037-100.845037 39.348148-111.881482-78.345481 26.699852-38.125037 91.458371 64.037926 77.937777-30.39763 0.265482-1.308445 1.896296-82.678518-91.45837-64.037926 26.69037-38.125037 111.881482 78.336-2.522074 109.956741 48.829629 9.993481a69.755259 69.755259 0 0 1 69.688889-30.464L633.837037 418.133333a69.546667 69.546667 0 0 1-17.104593-45.776592c0-5.944889 0.749037-11.719111 2.142815-17.227852l-115.636148-88.196741c-76.705185-7.338667-136.685037-71.954963-136.685037-150.575407v-23.277037h302.554074v23.277037c0 18.991407-3.508148 37.167407-9.898667 53.921185l66.503112 144.260741a69.82163 69.82163 0 0 1-51.38963 126.568296l-51.977482 94.283852a69.82163 69.82163 0 0 1-52.148148 116.242963z m-52.35674-430.544593l3.081481-0.047407c48.213333-1.393778 88.244148-35.365926 98.872889-80.668445l0.161185-0.739555H415.687111l0.170667 0.739555c10.856296 46.26963 52.385185 80.715852 101.963852 80.715852z m152.007111 83.465482l-39.917037-86.603852a151.476148 151.476148 0 0 1-60.747852 40.751407l75.643259 57.685334c7.35763-5.499259 15.834074-9.576296 25.02163-11.832889z m16.715852 91.079111a23.277037 23.277037 0 1 0 0-46.544593 23.277037 23.277037 0 0 0 0 46.554074zM570.17837 605.089185a23.277037 23.277037 0 1 0 0-46.544592 23.277037 23.277037 0 0 0 0 46.554074z"  horiz-adv-x="1024" />

    
    <glyph glyph-name="hp_ksdb_dsh" unicode="&#58951;" d="M512 896c282.766222 0 512-229.233778 512-512s-229.233778-512-512-512S0 101.23377800000003 0 384 229.233778 896 512 896z m0-34.910815C248.50963 861.089185 34.910815 647.49037 34.910815 384S248.50963-93.08918500000004 512-93.08918500000004 989.089185 120.50963000000002 989.089185 384 775.49037 861.089185 512 861.089185z m0-93.089185c212.081778 0 384-171.918222 384-384S724.081778 0 512 0 128 171.91822200000001 128 384 299.918222 768 512 768zM285.989926 443.486815l-0.009482-47.853037v-4.010667c2.180741-126.691556 105.53837-228.712296 232.722963-228.712296 59.192889 0 115.01037 22.234074 157.667556 61.534815a233.813333 233.813333 0 0 1 33.441185 38.333629l-50.773333 50.062222-9.509926-14.317037a164.048593 164.048593 0 0 0-20.470519-22.727111 162.171259 162.171259 0 0 0-110.354963-43.07437c-65.668741 0-122.263704 38.864593-148.043851 94.843259l0.597333-0.445629h31.099259L285.989926 443.486815zM512 616.7229629999999a231.973926 231.973926 0 0 1-157.658074-61.534815 233.813333 233.813333 0 0 1-33.441185-38.333629c23.760593-24.367407 40.931556-41.509926 51.512889-51.465482 1.517037 3.39437 3.451259 7.243852 5.783703 11.567407l2.977186 4.143408a164.048593 164.048593 0 0 0 20.48 22.746074A162.171259 162.171259 0 0 0 512 546.910815c73.79437 0 136.135111-49.066667 156.16-116.356741h-39.793778L674.891852 384V384h0.009481l69.812148-69.82163V384l-0.028444 4.010667C742.551704 514.683259 639.194074 616.7229629999999 512 616.7229629999999z"  horiz-adv-x="1024" />

    
    <glyph glyph-name="hp_cgdd_dps" unicode="&#58952;" d="M512 896c282.766222 0 512-229.233778 512-512s-229.233778-512-512-512S0 101.23377800000003 0 384 229.233778 896 512 896z m0-34.910815C248.50963 861.089185 34.910815 647.49037 34.910815 384S248.50963-93.08918500000004 512-93.08918500000004 989.089185 120.50963000000002 989.089185 384 775.49037 861.089185 512 861.089185z m0-93.089185c212.081778 0 384-171.918222 384-384S724.081778 0 512 0 128 171.91822200000001 128 384 299.918222 768 512 768z m161.242074-174.554074H244.366222v-375.675259l59.354074-0.009482c14.241185-38.798222 51.503407-66.484148 95.241482-66.484148 38.551704 0 72.078222 21.513481 89.220741 53.191111h60.928a101.385481 101.385481 0 0 1 89.22074-53.191111c43.738074 0 81.009778 27.685926 95.241482 66.484148h72.656592v226.417778l-132.987259 57.514667v91.761777zM398.961778 284.254815a31.582815 31.582815 0 1 0 0-63.16563 31.582815 31.582815 0 0 0 0 63.175111z m239.378963 0a31.582815 31.582815 0 1 0 0-63.16563 31.582815 31.582815 0 0 0 0 63.175111z m-34.910815 239.378963v-175.729778a101.594074 101.594074 0 0 1-64.18963-73.623704H498.062222c-9.898667 45.624889-50.507852 79.796148-99.090963 79.796148-35.451259 0-66.654815-18.185481-84.783407-45.748148V523.633778h289.251555z m69.812148-98.010074l63.16563-27.32563v-110.705778h-2.844445a101.69837 101.69837 0 0 1-60.311703 60.311704l-0.009482 77.719704z"  horiz-adv-x="1024" />

    
    <glyph glyph-name="hp_jgd_dscjhd" unicode="&#58953;" d="M512 896c282.766222 0 512-229.233778 512-512s-229.233778-512-512-512S0 101.23377800000003 0 384 229.233778 896 512 896z m0-34.910815C248.50963 861.089185 34.910815 647.49037 34.910815 384S248.50963-93.08918500000004 512-93.08918500000004 989.089185 120.50963000000002 989.089185 384 775.49037 861.089185 512 861.089185z m0-93.089185c212.081778 0 384-171.918222 384-384S724.081778 0 512 0 128 171.91822200000001 128 384 299.918222 768 512 768z m37.262222-469.684148l-54.888296 33.469629c3.887407 12.837926 5.992296 26.462815 5.992296 40.580741 0 20.252444-4.314074 39.499852-12.069926 56.879408l50.915556 40.523851a110.051556 110.051556 0 0 1 65.877333-21.769481c61.060741 0 110.554074 49.493333 110.554074 110.554074 0 61.041778-49.493333 110.535111-110.554074 110.535111-61.051259 0-110.544593-49.493333-110.544592-110.544592 0-10.932148 1.592889-21.504 4.551111-31.478519l-54.300445-43.19763a139.017481 139.017481 0 0 1-84.072296 28.131556c-77.112889 0-139.633778-62.520889-139.633778-139.633778 0-77.12237 62.520889-139.643259 139.633778-139.643259 37.831111 0 72.135111 15.03763 97.28 39.461926l60.709926-36.996741c-0.587852-4.617481-0.891259-9.320296-0.891259-14.098963 0-61.051259 49.493333-110.544593 110.544592-110.544592 61.051259 0 110.544593 49.493333 110.544593 110.554074 0 61.041778-49.493333 110.535111-110.554074 110.535111-30.994963 0-59.012741-12.762074-79.085037-33.317926z m79.104-24.860445a52.366222 52.366222 0 1 0 0-104.732444 52.366222 52.366222 0 0 0 0 104.732444zM360.722963 442.17837a69.82163 69.82163 0 1 0 0-139.633777 69.82163 69.82163 0 0 0 0 139.633777z m244.366222 168.732445a52.366222 52.366222 0 1 0 0-104.732445 52.366222 52.366222 0 0 0 0 104.732445z"  horiz-adv-x="1024" />

    
    <glyph glyph-name="hp_jhd_djh" unicode="&#58954;" d="M512 896c282.766222 0 512-229.233778 512-512s-229.233778-512-512-512S0 101.23377800000003 0 384 229.233778 896 512 896z m0-34.910815C248.50963 861.089185 34.910815 647.49037 34.910815 384S248.50963-93.08918500000004 512-93.08918500000004 989.089185 120.50963000000002 989.089185 384 775.49037 861.089185 512 861.089185z m0-93.089185c212.081778 0 384-171.918222 384-384S724.081778 0 512 0 128 171.91822200000001 128 384 299.918222 768 512 768zM372.356741 302.554074h-69.812148v-139.643259h139.633777v69.821629h-69.812148l-0.009481 69.82163z m349.098666 0h-69.821629v-69.831111l-69.82163 0.009481v-69.821629h139.643259V302.54459299999996z m0 116.356741H302.544593v-69.82163h418.910814v69.82163zM442.17837 605.089185H302.554074v-139.633778h69.812148v69.82163h69.82163v69.812148z m279.277037 0H581.82163l-0.009482-69.812148h69.82163v-69.82163h69.821629V605.089185z"  horiz-adv-x="1024" />

    
    <glyph glyph-name="hp_cgjh_dzdd" unicode="&#58955;" d="M512 896c282.766222 0 512-229.233778 512-512s-229.233778-512-512-512S0 101.23377800000003 0 384 229.233778 896 512 896z m0-34.910815C248.50963 861.089185 34.910815 647.49037 34.910815 384S248.50963-93.08918500000004 512-93.08918500000004 989.089185 120.50963000000002 989.089185 384 775.49037 861.089185 512 861.089185z m0-93.089185c212.081778 0 384-171.918222 384-384S724.081778 0 512 0 128 171.91822200000001 128 384 299.918222 768 512 768zM625.777778 649.481481H246.518519v-379.259259h151.703703v-151.703703h379.259259V497.777778H625.777778V649.481481z m75.851852-227.555555v-227.555556H474.074074v75.851852h151.703704V421.925926h75.851852zM549.925926 573.62963v-75.851852H398.222222v-151.703704h-75.851852V573.62963h227.555556z m0-151.703704v-75.851852h-75.851852v75.851852h75.851852z"  horiz-adv-x="1024" />

    
    <glyph glyph-name="hp_cgdd_djs" unicode="&#58956;" d="M512 896c282.766222 0 512-229.233778 512-512s-229.233778-512-512-512S0 101.23377800000003 0 384 229.233778 896 512 896z m0-34.910815C248.50963 861.089185 34.910815 647.49037 34.910815 384S248.50963-93.08918500000004 512-93.08918500000004 989.089185 120.50963000000002 989.089185 384 775.49037 861.089185 512 861.089185z m0-93.089185c212.081778 0 384-171.918222 384-384S724.081778 0 512 0 128 171.91822200000001 128 384 299.918222 768 512 768z m-52.366222-81.445926h-81.445926l-0.009482-34.910815h-63.506963l-2.465185-0.06637a52.366222 52.366222 0 0 1-49.901037-52.299852v-442.187852l0.056889-2.465185a52.366222 52.366222 0 0 1 52.309333-49.901037h442.178371v81.455407h-413.108148v384l34.43674 0.009482v-46.554074h81.455408v46.554074h93.089185v-46.554074h81.455407v46.554074h36.181334v-326.447408h81.445926V599.2770370000001l-0.047408 2.465185a52.366222 52.366222 0 0 1-52.309333 49.891556l-65.270519 0.009481v34.901334h-81.445926l-0.009481-34.901334h-93.089185v34.901334z m173.681778-360.732444h-253.62963v-81.455408h253.62963v81.445926z m0 133.812148h-253.62963v-81.445926h253.62963v81.445926z"  horiz-adv-x="1024" />

    
    <glyph glyph-name="hp_sj_dsj" unicode="&#58957;" d="M512 896c282.766222 0 512-229.233778 512-512s-229.233778-512-512-512S0 101.23377800000003 0 384 229.233778 896 512 896z m0-34.910815C248.50963 861.089185 34.910815 647.49037 34.910815 384S248.50963-93.08918500000004 512-93.08918500000004 989.089185 120.50963000000002 989.089185 384 775.49037 861.089185 512 861.089185z m0-93.089185c212.081778 0 384-171.918222 384-384S724.081778 0 512 0 128 171.91822200000001 128 384 299.918222 768 512 768z m174.554074-541.089185H337.445926v-69.82163h349.108148v69.82163zM514.000593 646.627556l-190.957037-172.913778 46.866963-51.749926 107.169185 97.071407v-210.678518h69.821629l-0.009481 212.489481 106.571852-98.910815 47.502222 51.181037-186.974815 173.511112z"  horiz-adv-x="1024" />

    
    <glyph glyph-name="hp_zxkth_dsh" unicode="&#58958;" d="M512 896c282.766222 0 512-229.233778 512-512s-229.233778-512-512-512S0 101.23377800000003 0 384 229.233778 896 512 896z m0-34.910815C248.50963 861.089185 34.910815 647.49037 34.910815 384S248.50963-93.08918500000004 512-93.08918500000004 989.089185 120.50963000000002 989.089185 384 775.49037 861.089185 512 861.089185z m0-93.089185c212.081778 0 384-171.918222 384-384S724.081778 0 512 0 128 171.91822200000001 128 384 299.918222 768 512 768z m75.605333-333.605926l1.905778-0.056889a29.089185 29.089185 0 0 0 27.183408-29.032296v-110.952296l-0.066371-1.91526a29.089185 29.089185 0 0 0-29.022815-27.173926h-218.737777v-81.455407h218.737777l3.147852 0.047407c59.591111 1.659259 107.396741 50.49837 107.396741 110.497186V405.304889l-0.047407 3.147852c-1.668741 59.600593-50.49837 107.396741-110.497186 107.39674l-103.907555 0.009482 50.991407 50.981926-57.6 57.6-152.215704-152.215704L477.089185 320l57.6 57.6-56.803555 56.803556h109.719703z"  horiz-adv-x="1024" />

    
    <glyph glyph-name="hp_psd_dys" unicode="&#58959;" d="M512 896c282.766222 0 512-229.233778 512-512s-229.233778-512-512-512S0 101.23377800000003 0 384 229.233778 896 512 896z m0-34.910815C248.50963 861.089185 34.910815 647.49037 34.910815 384S248.50963-93.08918500000004 512-93.08918500000004 989.089185 120.50963000000002 989.089185 384 775.49037 861.089185 512 861.089185z m0-93.089185c212.081778 0 384-171.918222 384-384S724.081778 0 512 0 128 171.91822200000001 128 384 299.918222 768 512 768z m6.001778-100.058074l-250.368-52.053333v-242.640593a256 256 0 0 1 99.896889-202.903704l150.281481-115.626666 150.300445 115.636148A256 256 0 0 1 768 373.24800000000005V615.8696299999999l-249.998222 52.072296z m-0.009482-71.310222l180.186074-37.537185v-185.846519c0-57.799111-26.832593-112.31763-72.647111-147.560296l-107.709629-82.87763-107.70963 82.868148a186.17837 186.17837 0 0 0-72.656593 147.569778V559.094519l180.527408 37.537185z m116.840297-113.654519L496.545185 348.103111l-83.787852 83.512889-57.495703-57.685333L495.919407 233.71851900000001l195.792593 190.938074-56.879407 58.311111z"  horiz-adv-x="1024" />

    
    <glyph glyph-name="hp_tsd_dfh" unicode="&#58960;" d="M512 896c282.766222 0 512-229.233778 512-512s-229.233778-512-512-512S0 101.23377800000003 0 384 229.233778 896 512 896z m0-34.910815C248.50963 861.089185 34.910815 647.49037 34.910815 384S248.50963-93.08918500000004 512-93.08918500000004 989.089185 120.50963000000002 989.089185 384 775.49037 861.089185 512 861.089185z m0-93.089185c212.081778 0 384-171.918222 384-384S724.081778 0 512 0 128 171.91822200000001 128 384 299.918222 768 512 768zM273.635556 592.9339259999999a34.910815 34.910815 0 0 1-39.973926-26.377482l-0.417186-2.010074a34.910815 34.910815 0 0 1 26.386963-39.983407l81.910519-19.304296 91.894518-257.877334a98.56 98.56 0 0 1-26.168888-67.015111c0-54.632296 44.288-98.910815 98.910814-98.910815 48.45037 0 88.76563 34.834963 97.261037 80.820149l129.564445 44.581925 1.924741 0.730075a34.910815 34.910815 0 0 1-24.642371 65.289481l-119.561481-41.14963a99.328 99.328 0 0 1-14.411852 18.394074l188.558222 61.250371-75.52 232.400592-232.391111-75.510518 61.658074-189.76237a99.877926 99.877926 0 0 1-22.262518 0.284444L394.56237 564.498963l-118.91674 28.036741z m232.542814-383.478519a29.089185 29.089185 0 1 0 0-58.17837 29.089185 29.089185 0 0 0 0 58.17837z m138.353778 246.347852l32.360296-99.602963-99.602963-32.360296-32.360296 99.593481 99.602963 32.369778z"  horiz-adv-x="1024" />

    
    <glyph glyph-name="hp_shql" unicode="&#58961;" d="M512 896c282.766222 0 512-229.233778 512-512s-229.233778-512-512-512S0 101.23377800000003 0 384 229.233778 896 512 896z m0-34.910815C248.50963 861.089185 34.910815 647.49037 34.910815 384S248.50963-93.08918500000004 512-93.08918500000004 989.089185 120.50963000000002 989.089185 384 775.49037 861.089185 512 861.089185z m0-93.089185c212.081778 0 384-171.918222 384-384S724.081778 0 512 0 128 171.91822200000001 128 384 299.918222 768 512 768zM381.44 357.812148l-28.463407-66.920296-0.426667-0.018963a75.633778 75.633778 0 1 1 45.330963-13.349926l26.396444 62.075259-42.837333 18.204445z m-12.060444 292.295111L334.620444 560.355556l130.408297-290.910815a75.633778 75.633778 0 1 1 41.746963 20.669629l-121.742223 271.54963 27.752297 71.632593-43.406222 16.810666z m261.594074 5.110519v-486.494815a29.089185 29.089185 0 0 1 58.187851 0V403.171556c-7.926519 9.728-11.880296 20.442074-11.880296 32.142222 0 11.690667 3.953778 24.585481 11.880296 38.684444v23.713185a242.280296 242.280296 0 0 1-58.187851 157.506371zM354.910815 244.366222a29.089185 29.089185 0 1 0 0-58.187852 29.089185 29.089185 0 0 0 0 58.187852z m162.910815 0a29.089185 29.089185 0 1 0 0-58.187852 29.089185 29.089185 0 0 0 0 58.187852z m-10.960593 405.741037l-43.396741-16.810666 27.695408-71.518815-53.522963-116.773926 42.30637-19.399111 61.724445 134.637037-34.797037 89.865481z"  horiz-adv-x="1024" />

    
    <glyph glyph-name="hp_ptql" unicode="&#58962;" d="M512 896c282.766222 0 512-229.233778 512-512s-229.233778-512-512-512S0 101.23377800000003 0 384 229.233778 896 512 896z m0-34.910815C248.50963 861.089185 34.910815 647.49037 34.910815 384S248.50963-93.08918500000004 512-93.08918500000004 989.089185 120.50963000000002 989.089185 384 775.49037 861.089185 512 861.089185z m0-93.089185c212.081778 0 384-171.918222 384-384S724.081778 0 512 0 128 171.91822200000001 128 384 299.918222 768 512 768z m193.554963-234.979556L482.578963 314.63348099999996 344.538074 452.835556l-74.088296-74.012445L481.782519 167.253333l297.054814 290.948741-73.291852 74.81837z"  horiz-adv-x="1024" />

    
    <glyph glyph-name="hp_ksth_dsh" unicode="&#58963;" d="M512 896c282.766222 0 512-229.233778 512-512s-229.233778-512-512-512S0 101.23377800000003 0 384 229.233778 896 512 896z m0-34.910815C248.50963 861.089185 34.910815 647.49037 34.910815 384S248.50963-93.08918500000004 512-93.08918500000004 989.089185 120.50963000000002 989.089185 384 775.49037 861.089185 512 861.089185z m0-93.089185c212.081778 0 384-171.918222 384-384S724.081778 0 512 0 128 171.91822200000001 128 384 299.918222 768 512 768z m2.56-125.11763L264.751407 393.073778l65.166223-65.166222 18.24237 18.251851v-191.165629h337.92V341.02992600000005l13.12237-13.12237 65.166223 65.166222L514.56 642.88237z m0-130.332444l157.866667-157.866667h-78.506667v-107.52h-153.6v107.52h-83.636148l157.876148 157.866667z"  horiz-adv-x="1024" />

    


  </font>
</defs>
</svg>
